<svg id="ekjb92w9ec8i1" xmlns="http://www.w3.org/2000/svg" xmlns:xlink="http://www.w3.org/1999/xlink" viewBox="0 0 1008 502" shape-rendering="geometricPrecision" text-rendering="geometricPrecision"><defs><linearGradient id="ekjb92w9ec8i4-fill" x1="749.500000" y1="429.500000" x2="90" y2="392" spreadMethod="pad" gradientUnits="userSpaceOnUse"><stop id="ekjb92w9ec8i4-fill-0" offset="0%" stop-color="rgb(189,96,233)"/><stop id="ekjb92w9ec8i4-fill-1" offset="100%" stop-color="rgb(18,239,253)"/></linearGradient><linearGradient id="ekjb92w9ec8i18-fill" x1="473.115000" y1="280.710000" x2="473.115000" y2="376.440000" spreadMethod="pad" gradientUnits="userSpaceOnUse"><stop id="ekjb92w9ec8i18-fill-0" offset="0%" stop-color="rgb(245,245,245)"/><stop id="ekjb92w9ec8i18-fill-1" offset="100%" stop-color="rgba(245,245,245,0)"/></linearGradient><linearGradient id="ekjb92w9ec8i58-fill" x1="196.180000" y1="231.582000" x2="196.180000" y2="152.012000" spreadMethod="pad" gradientUnits="userSpaceOnUse"><stop id="ekjb92w9ec8i58-fill-0" offset="0%" stop-color="rgba(128,128,128,0.25)"/><stop id="ekjb92w9ec8i58-fill-1" offset="54%" stop-color="rgba(128,128,128,0.12)"/><stop id="ekjb92w9ec8i58-fill-2" offset="100%" stop-color="rgba(128,128,128,0.1)"/></linearGradient><linearGradient id="ekjb92w9ec8i106-fill" x1="112102" y1="212052" x2="112102" y2="114308" spreadMethod="pad" gradientUnits="userSpaceOnUse"><stop id="ekjb92w9ec8i106-fill-0" offset="0%" stop-color="rgba(128,128,128,0.25)"/><stop id="ekjb92w9ec8i106-fill-1" offset="54%" stop-color="rgba(128,128,128,0.12)"/><stop id="ekjb92w9ec8i106-fill-2" offset="100%" stop-color="rgba(128,128,128,0.1)"/></linearGradient></defs><g id="ekjb92w9ec8i2" clip-path="url(#ekjb92w9ec8i134)"><g id="ekjb92w9ec8i3"><path id="ekjb92w9ec8i4" d="M525.470000,501.780000C791.539000,501.780000,1007.230000,440.152000,1007.230000,364.130000C1007.230000,288.108000,791.539000,226.480000,525.470000,226.480000C259.401000,226.480000,43.710000,288.108000,43.710000,364.130000C43.710000,440.152000,259.401000,501.780000,525.470000,501.780000Z" transform="matrix(1 0 0 1 0 -6.12998962402344)" fill="url(#ekjb92w9ec8i4-fill)" stroke="none" stroke-width="1"/><g id="ekjb92w9ec8i5" transform="matrix(0.95000000000000 0 0 1 48.94999999999993 0)"><path id="ekjb92w9ec8i6" d="M880.090000,171.720000C880.090000,171.720000,899.510000,191.140000,888.550000,219.960000C877.590000,248.780000,907.350000,296.710000,907.350000,296.710000L906.440000,296.560000C866.550000,289.560000,846.730000,243.900000,868.910000,210.010000C877.150000,197.400000,883.920000,182.620000,880.090000,171.720000Z" fill="rgb(40,249,136)" stroke="none" stroke-width="1"/><path id="ekjb92w9ec8i7" d="M880.090000,171.720000C880.090000,171.720000,891.090000,195.530000,880.090000,214.950000C869.090000,234.370000,878.210000,288.880000,907.340000,296.710000" fill="none" stroke="rgb(40,249,136)" stroke-width="1" stroke-miterlimit="10"/><path id="ekjb92w9ec8i8" d="M845.500000,250.270000C845.500000,250.270000,867.660000,246.740000,869.680000,266.600000C871.700000,286.460000,912.300000,289.210000,912.300000,289.210000L911.540000,289.720000C878.020000,311.720000,845.980000,303.720000,850.810000,274.520000C852.620000,263.660000,852.450000,252.750000,845.500000,250.270000Z" fill="rgb(70,145,104)" stroke="none" stroke-width="1"/></g><g id="ekjb92w9ec8i9"><path id="ekjb92w9ec8i10" d="M232.820000,430.640000C268.067000,430.640000,296.640000,402.067000,296.640000,366.820000C296.640000,331.573000,268.067000,303,232.820000,303C197.573000,303,169,331.573000,169,366.820000C169,402.067000,197.573000,430.640000,232.820000,430.640000Z" fill="rgb(26,34,70)" stroke="none" stroke-width="1"/><path id="ekjb92w9ec8i11" d="M232.820000,402.280000C252.404000,402.280000,268.280000,386.404000,268.280000,366.820000C268.280000,347.236000,252.404000,331.360000,232.820000,331.360000C213.236000,331.360000,197.360000,347.236000,197.360000,366.820000C197.360000,386.404000,213.236000,402.280000,232.820000,402.280000Z" fill="rgb(254,206,83)" stroke="none" stroke-width="1"/><path id="ekjb92w9ec8i12" d="M232.230000,375.690000C237.455000,375.690000,241.690000,371.455000,241.690000,366.230000C241.690000,361.005000,237.455000,356.770000,232.230000,356.770000C227.005000,356.770000,222.770000,361.005000,222.770000,366.230000C222.770000,371.455000,227.005000,375.690000,232.230000,375.690000Z" fill="rgb(26,34,70)" stroke="none" stroke-width="1"/></g><g id="ekjb92w9ec8i13" transform="matrix(1 0 0 1 0 4.17999267578125)"><path id="ekjb92w9ec8i14" d="M698.820000,427.640000C734.067000,427.640000,762.640000,399.067000,762.640000,363.820000C762.640000,328.573000,734.067000,300,698.820000,300C663.573000,300,635,328.573000,635,363.820000C635,399.067000,663.573000,427.640000,698.820000,427.640000Z" fill="rgb(26,34,70)" stroke="none" stroke-width="1"/><path id="ekjb92w9ec8i15" d="M698.820000,399.280000C718.404000,399.280000,734.280000,383.404000,734.280000,363.820000C734.280000,344.236000,718.404000,328.360000,698.820000,328.360000C679.236000,328.360000,663.360000,344.236000,663.360000,363.820000C663.360000,383.404000,679.236000,399.280000,698.820000,399.280000Z" fill="rgb(254,206,83)" stroke="none" stroke-width="1"/><path id="ekjb92w9ec8i16" d="M699.410000,372.690000C704.635000,372.690000,708.870000,368.455000,708.870000,363.230000C708.870000,358.005000,704.635000,353.770000,699.410000,353.770000C694.185000,353.770000,689.950000,358.005000,689.950000,363.230000C689.950000,368.455000,694.185000,372.690000,699.410000,372.690000Z" fill="rgb(26,34,70)" stroke="none" stroke-width="1"/></g><g id="ekjb92w9ec8i17"><path id="ekjb92w9ec8i18" d="M811.730000,376.440000L763.860000,372.900000L134.500000,372.900000L134.500000,280.710000L811.730000,280.710000L811.730000,376.440000Z" fill="url(#ekjb92w9ec8i18-fill)" stroke="none" stroke-width="1"/><path id="ekjb92w9ec8i19" d="M127.980000,44.900000L86.640000,44.900000L86.640000,20.560000C86.640000,16.051300,88.431100,11.727300,91.619200,8.539180C94.807300,5.351070,99.131300,3.560000,103.640000,3.560000L110.980000,3.560000C115.489000,3.560000,119.813000,5.351070,123.001000,8.539180C126.189000,11.727300,127.980000,16.051300,127.980000,20.560000L127.980000,44.900000Z" fill="rgb(222,61,119)" stroke="none" stroke-width="1"/><path id="ekjb92w9ec8i20" d="M837.140000,236.390000L837.140000,377.040000L790.980000,376.440000C790.980000,375.440000,791.050000,374.440000,791.050000,373.500000C791.050000,349.365000,781.462000,326.219000,764.397000,309.153000C747.331000,292.087000,724.185000,282.500000,700.050000,282.500000C675.915000,282.500000,652.769000,292.087000,635.703000,309.153000C618.637000,326.219000,609.050000,349.365000,609.050000,373.500000C609.050000,373.700000,609.050000,373.900000,609.050000,374.090000L562.980000,373.490000L324.200000,373.490000C324.197000,370.149000,324.010000,366.811000,323.640000,363.490000C323.470000,361.890000,323.260000,360.320000,322.990000,358.760000C322.347000,354.749000,321.432000,350.786000,320.250000,346.900000C319.770000,345.300000,319.250000,343.730000,318.670000,342.170000C317.178000,338.109000,315.400000,334.159000,313.350000,330.350000C312.490000,328.740000,311.570000,327.170000,310.610000,325.620000C308.029000,321.452000,305.116000,317.499000,301.900000,313.800000C300.480000,312.167000,299.010000,310.590000,297.490000,309.070000C280.428000,292.036000,257.304000,282.468000,233.195000,282.468000C209.086000,282.468000,185.962000,292.036000,168.900000,309.070000C167.373000,310.597000,165.903000,312.173000,164.490000,313.800000C161.274000,317.499000,158.361000,321.452000,155.780000,325.620000C154.780000,327.170000,153.900000,328.740000,153.040000,330.350000C150.990000,334.159000,149.212000,338.109000,147.720000,342.170000C147.150000,343.730000,146.620000,345.300000,146.140000,346.900000C144.960000,350.773000,144.045000,354.722000,143.400000,358.720000C143.130000,360.280000,142.920000,361.850000,142.750000,363.450000C142.380000,366.770000,142.193000,370.109000,142.190000,373.450000L51.190000,373.450000L51.190000,62.650000L692.980000,62.650000L756.650000,201.480000L835.780000,235.800000L837.140000,236.390000Z" fill="rgb(254,206,83)" stroke="none" stroke-width="1"/><path id="ekjb92w9ec8i21" d="M65.360000,33.100000L667.960000,33.100000C674.590000,33.100000,680.949000,35.733900,685.638000,40.422300C690.326000,45.110700,692.960000,51.469600,692.960000,58.100000L692.960000,62.650000L51.180000,62.650000L51.180000,47.270000C51.180000,45.408300,51.546800,43.564900,52.259600,41.845000C52.972300,40.125200,54.017000,38.562700,55.333800,37.246700C56.650700,35.930800,58.214000,34.887300,59.934300,34.175700C61.654600,33.464200,63.498300,33.098700,65.360000,33.100000L65.360000,33.100000Z" fill="rgb(222,61,119)" stroke="none" stroke-width="1"/><path id="ekjb92w9ec8i22" d="M548.760000,33.100000L402.200000,33.100000L402.200000,27.580000C402.200000,23.958100,402.913000,20.371700,404.299000,17.025600C405.685000,13.679400,407.717000,10.639000,410.278000,8.077990C412.839000,5.516950,415.879000,3.485420,419.226000,2.099400C422.572000,0.713371,426.158000,0,429.780000,0L514.480000,0L548.760000,33.100000Z" fill="rgb(252,102,129)" stroke="none" stroke-width="1"/><path id="ekjb92w9ec8i23" d="M109.910000,327.390000L49.180000,327.390000C43.104900,327.390000,38.180000,332.315000,38.180000,338.390000L38.180000,373.120000C38.180000,379.195000,43.104900,384.120000,49.180000,384.120000L109.910000,384.120000C115.985000,384.120000,120.910000,379.195000,120.910000,373.120000L120.910000,338.390000C120.910000,332.315000,115.985000,327.390000,109.910000,327.390000Z" opacity="0.1" fill="rgb(0,0,0)" stroke="none" stroke-width="1"/><path id="ekjb92w9ec8i24" d="M562.350000,372.900000L493.800000,372.900000L493.800000,62.060000L628.530000,62.060000L628.530000,277.160000L562.350000,372.900000Z" opacity="0.1" fill="rgb(0,0,0)" stroke="none" stroke-width="1"/><path id="ekjb92w9ec8i25" d="M108.730000,329.760000L48,329.760000C41.924900,329.760000,37,334.685000,37,340.760000L37,375.490000C37,381.565000,41.924900,386.490000,48,386.490000L108.730000,386.490000C114.805000,386.490000,119.730000,381.565000,119.730000,375.490000L119.730000,340.760000C119.730000,334.685000,114.805000,329.760000,108.730000,329.760000Z" fill="rgb(222,61,119)" stroke="none" stroke-width="1"/><path id="ekjb92w9ec8i26" d="M843.400000,325.030000L826.150000,325.030000C818.512000,325.030000,812.320000,331.222000,812.320000,338.860000L812.320000,377.390000C812.320000,385.028000,818.512000,391.220000,826.150000,391.220000L843.400000,391.220000C851.038000,391.220000,857.230000,385.028000,857.230000,377.390000L857.230000,338.860000C857.230000,331.222000,851.038000,325.030000,843.400000,325.030000Z" opacity="0.1" fill="rgb(0,0,0)" stroke="none" stroke-width="1"/><path id="ekjb92w9ec8i27" d="M845.760000,326.210000L828.510000,326.210000C820.872000,326.210000,814.680000,332.402000,814.680000,340.040000L814.680000,378.570000C814.680000,386.208000,820.872000,392.400000,828.510000,392.400000L845.760000,392.400000C853.398000,392.400000,859.590000,386.208000,859.590000,378.570000L859.590000,340.040000C859.590000,332.402000,853.398000,326.210000,845.760000,326.210000Z" fill="rgb(222,61,119)" stroke="none" stroke-width="1"/><path id="ekjb92w9ec8i28" d="M406.920000,94.560000L136.270000,94.560000L136.270000,241.110000L406.920000,241.110000L406.920000,94.560000Z" fill="rgb(26,34,70)" stroke="none" stroke-width="1"/><path id="ekjb92w9ec8i29" d="M407.520000,106.970000L264.510000,106.970000L264.510000,233.430000L407.520000,233.430000L407.520000,106.970000Z" fill="rgb(245,245,245)" stroke="none" stroke-width="1"/><path id="ekjb92w9ec8i30" d="M264.510000,208.020000L367.330000,131.790000L381.520000,135.340000L264.510000,219.840000L264.510000,208.020000Z" fill="rgb(255,255,255)" stroke="none" stroke-width="1"/><path id="ekjb92w9ec8i31" d="M264.510000,177.290000L320.060000,117.610000L346.060000,123.520000L264.510000,200.340000L264.510000,177.290000Z" fill="rgb(255,255,255)" stroke="none" stroke-width="1"/><path id="ekjb92w9ec8i32" d="M596.580000,85.110000L529.300000,85.110000C520.463000,85.110000,513.300000,92.273400,513.300000,101.110000L513.300000,206.210000C513.300000,215.047000,520.463000,222.210000,529.300000,222.210000L596.580000,222.210000C605.417000,222.210000,612.580000,215.047000,612.580000,206.210000L612.580000,101.110000C612.580000,92.273400,605.417000,85.110000,596.580000,85.110000Z" fill="rgb(251,251,251)" stroke="none" stroke-width="1"/><path id="ekjb92w9ec8i33" d="M606.670000,234.020000L593.670000,234.020000L593.670000,262.390000L606.670000,262.390000L606.670000,234.020000Z" fill="rgb(83,109,254)" stroke="none" stroke-width="1"/><path id="ekjb92w9ec8i34" d="M652.760000,104.600000L652.760000,202.500000C652.760000,203.964000,653.342000,205.368000,654.377000,206.403000C655.412000,207.438000,656.816000,208.020000,658.280000,208.020000L718.530000,208.020000C719.512000,208.019000,720.475000,207.757000,721.322000,207.260000C722.168000,206.763000,722.867000,206.050000,723.346000,205.193000C723.824000,204.336000,724.066000,203.367000,724.046000,202.386000C724.025000,201.404000,723.744000,200.446000,723.230000,199.610000L662.980000,101.710000C662.350000,100.687000,661.404000,99.897800,660.284000,99.461600C659.165000,99.025400,657.934000,98.966300,656.778000,99.293200C655.622000,99.620100,654.604000,100.315000,653.879000,101.273000C653.154000,102.231000,652.761000,103.399000,652.760000,104.600000L652.760000,104.600000Z" fill="rgb(245,245,245)" stroke="none" stroke-width="1"/><path id="ekjb92w9ec8i35" d="M545.210000,85.110000L513.300000,113.470000L513.300000,128.250000L558.800000,85.110000L545.210000,85.110000Z" fill="rgb(255,255,255)" stroke="none" stroke-width="1"/><path id="ekjb92w9ec8i36" d="M513.300000,145.370000L513.300000,162.520000L588.940000,85.110000L574.160000,85.110000L513.300000,145.370000Z" fill="rgb(255,255,255)" stroke="none" stroke-width="1"/><path id="ekjb92w9ec8i37" d="M672.760000,117.610000L652.760000,145.370000L652.760000,156.020000L679.310000,128.250000L672.760000,117.610000Z" fill="rgb(255,255,255)" stroke="none" stroke-width="1"/><path id="ekjb92w9ec8i38" d="M688.410000,145.370000L652.760000,175.820000L652.760000,184.390000L696.400000,156.020000L688.410000,145.370000Z" fill="rgb(255,255,255)" stroke="none" stroke-width="1"/><path id="ekjb92w9ec8i39" d="M493.800000,275.980000L50.590000,275.980000L50.590000,280.710000L493.800000,280.710000L493.800000,275.980000Z" opacity="0.1" fill="rgb(0,0,0)" stroke="none" stroke-width="1"/><path id="ekjb92w9ec8i40" d="M828.860000,280.710000L626.170000,280.710000L628.530000,277.160000L628.530000,275.980000L828.860000,275.980000" opacity="0.1" fill="rgb(0,0,0)" stroke="none" stroke-width="1"/><path id="ekjb92w9ec8i41" d="M828.860000,260.620000L628.530000,260.620000L628.530000,255.890000L828.860000,255.890000" opacity="0.1" fill="rgb(0,0,0)" stroke="none" stroke-width="1"/><path id="ekjb92w9ec8i42" d="M828.860000,240.520000L628.530000,240.520000L628.530000,235.800000L827.500000,235.800000" opacity="0.1" fill="rgb(0,0,0)" stroke="none" stroke-width="1"/><path id="ekjb92w9ec8i43" d="M191.580000,292.530000C188.797000,293.966000,186.090000,295.544000,183.470000,297.260000L50.590000,297.260000L50.590000,292.530000L191.580000,292.530000Z" opacity="0.1" fill="rgb(0,0,0)" stroke="none" stroke-width="1"/><path id="ekjb92w9ec8i44" d="M493.800000,292.530000L493.800000,297.260000L282.920000,297.260000C280.300000,295.544000,277.593000,293.966000,274.810000,292.530000L493.800000,292.530000Z" opacity="0.1" fill="rgb(0,0,0)" stroke="none" stroke-width="1"/><path id="ekjb92w9ec8i45" d="M168.900000,309.080000C167.373000,310.607000,165.903000,312.183000,164.490000,313.810000L50.590000,313.810000L50.590000,309.080000L168.900000,309.080000Z" opacity="0.1" fill="rgb(0,0,0)" stroke="none" stroke-width="1"/><path id="ekjb92w9ec8i46" d="M493.800000,309.080000L493.800000,313.810000L301.900000,313.810000C300.480000,312.177000,299.010000,310.600000,297.490000,309.080000L493.800000,309.080000Z" opacity="0.1" fill="rgb(0,0,0)" stroke="none" stroke-width="1"/><path id="ekjb92w9ec8i47" d="M155.780000,325.620000C154.780000,327.170000,153.900000,328.740000,153.040000,330.350000L50.590000,330.350000L50.590000,325.620000L155.780000,325.620000Z" opacity="0.1" fill="rgb(0,0,0)" stroke="none" stroke-width="1"/><path id="ekjb92w9ec8i48" d="M493.800000,325.620000L493.800000,330.350000L313.350000,330.350000C312.490000,328.740000,311.570000,327.170000,310.610000,325.620000L493.800000,325.620000Z" opacity="0.1" fill="rgb(0,0,0)" stroke="none" stroke-width="1"/><path id="ekjb92w9ec8i49" d="M147.720000,342.170000C147.150000,343.730000,146.620000,345.300000,146.140000,346.900000L121.500000,346.900000L121.500000,342.170000L147.720000,342.170000Z" opacity="0.1" fill="rgb(0,0,0)" stroke="none" stroke-width="1"/><path id="ekjb92w9ec8i50" d="M493.800000,342.170000L493.800000,346.900000L320.250000,346.900000C319.770000,345.300000,319.250000,343.730000,318.670000,342.170000L493.800000,342.170000Z" opacity="0.1" fill="rgb(0,0,0)" stroke="none" stroke-width="1"/><path id="ekjb92w9ec8i51" d="M143.390000,358.720000C143.120000,360.280000,142.910000,361.850000,142.740000,363.450000L121.500000,363.450000L121.500000,358.720000L143.390000,358.720000Z" opacity="0.1" fill="rgb(0,0,0)" stroke="none" stroke-width="1"/><path id="ekjb92w9ec8i52" d="M493.800000,358.720000L493.800000,363.450000L323.640000,363.450000C323.470000,361.850000,323.260000,360.280000,322.990000,358.720000L493.800000,358.720000Z" opacity="0.1" fill="rgb(38,34,34)" stroke="none" stroke-width="1"/><path id="ekjb92w9ec8i53" d="M395.700000,220.900000L388.610000,220.900000L388.610000,203.900000L391.610000,197.990000C391.665000,197.881000,391.749000,197.788000,391.853000,197.724000C391.957000,197.660000,392.078000,197.626000,392.200000,197.626000C392.322000,197.626000,392.442000,197.660000,392.547000,197.724000C392.651000,197.788000,392.735000,197.881000,392.790000,197.990000L395.790000,203.900000L395.700000,220.900000Z" fill="rgb(254,88,88)" stroke="none" stroke-width="1"/><path id="ekjb92w9ec8i54" d="M395.700000,203.920000L388.610000,203.920000L388.610000,204.630000L395.700000,204.630000L395.700000,203.920000Z" opacity="0.1" fill="rgb(0,0,0)" stroke="none" stroke-width="1"/><path id="ekjb92w9ec8i55" d="M406.340000,220.900000L399.250000,220.900000L399.250000,203.900000L402.250000,197.990000C402.305000,197.881000,402.389000,197.788000,402.493000,197.724000C402.598000,197.660000,402.718000,197.626000,402.840000,197.626000C402.962000,197.626000,403.082000,197.660000,403.187000,197.724000C403.291000,197.788000,403.375000,197.881000,403.430000,197.990000L406.430000,203.900000L406.340000,220.900000Z" fill="rgb(241,196,19)" stroke="none" stroke-width="1"/><path id="ekjb92w9ec8i56" d="M406.340000,203.920000L399.250000,203.920000L399.250000,204.630000L406.340000,204.630000L406.340000,203.920000Z" opacity="0.1" fill="rgb(0,0,0)" stroke="none" stroke-width="1"/><g id="ekjb92w9ec8i57" transform="matrix(1 0 0 1 50 -1.80437469482422)"><path id="ekjb92w9ec8i58" d="M222.730000,207.672000C222.692000,207.518000,222.642000,207.368000,222.580000,207.222000C222.990000,202.982000,224.190000,188.942000,222.460000,185.582000C221.110000,182.962000,217.460000,182.982000,213.150000,183.882000C213.150000,183.432000,213.210000,182.982000,213.210000,182.522000L213.210000,168.172000C213.142000,163.818000,211.348000,159.669000,208.222000,156.637000C205.096000,153.605000,200.895000,151.938000,196.540000,152.002000L193.840000,152.002000C189.486000,151.938000,185.285000,153.605000,182.159000,156.637000C179.033000,159.669000,177.239000,163.818000,177.170000,168.172000L177.170000,182.522000C177.170000,182.942000,177.170000,183.362000,177.220000,183.782000C172.550000,184.102000,168.120000,187.022000,169.150000,197.512000L169.150000,209.442000L170.090000,209.442000C170.413000,209.660000,170.747000,209.860000,171.090000,210.042000L173.290000,230.312000L180.470000,230.312000L180.380000,231.312000L208.480000,231.312000C210.780000,231.482000,213.070000,231.602000,214.860000,231.592000C216.018000,231.650000,217.178000,231.555000,218.310000,231.312000C221.390000,230.312000,221.390000,224.312000,221.390000,224.312000L222.390000,209.382000C222.573000,209.141000,222.698000,208.862000,222.757000,208.566000C222.815000,208.270000,222.807000,207.964000,222.730000,207.672000L222.730000,207.672000ZM182.190000,211.332000L182.290000,211.332000L182.290000,211.522000L182.190000,211.442000L182.190000,211.332000ZM209.120000,213.832000L209.630000,221.372000L209.120000,221.372000L209.120000,213.832000ZM180.470000,220.372000L182.190000,211.592000L182.300000,211.592000L181.470000,220.482000L180.470000,220.372000Z" fill="url(#ekjb92w9ec8i58-fill)" stroke="none" stroke-width="1"/><path id="ekjb92w9ec8i59" d="M197.850000,152.252000L192.530000,152.252000C184.445000,152.252000,177.890000,158.806000,177.890000,166.892000L177.890000,183.822000C177.890000,191.907000,184.445000,198.462000,192.530000,198.462000L197.850000,198.462000C205.936000,198.462000,212.490000,191.907000,212.490000,183.822000L212.490000,166.892000C212.490000,158.806000,205.936000,152.252000,197.850000,152.252000Z" fill="rgb(150,93,123)" stroke="none" stroke-width="1"/><path id="ekjb92w9ec8i60" d="M187.040000,185.622000C187.040000,185.622000,168.230000,176.622000,170.200000,197.302000L170.200000,209.082000L182.990000,209.082000L180.990000,230.732000L208.540000,230.732000L208.540000,209.082000C208.540000,209.082000,219.360000,210.082000,221.330000,208.082000C221.330000,208.082000,223.330000,189.382000,221.330000,185.452000C219.330000,181.522000,212.420000,183.612000,205.530000,185.572000C198.640000,187.532000,187.040000,185.622000,187.040000,185.622000Z" fill="rgb(252,102,129)" stroke="none" stroke-width="1"/><path id="ekjb92w9ec8i61" d="M171.960000,209.082000L174.130000,229.762000L195.780000,229.762000C195.780000,229.762000,204.640000,223.862000,199.720000,221.892000C194.800000,219.922000,191.850000,220.892000,191.850000,220.892000L181.030000,219.892000L183.080000,209.082000L171.960000,209.082000Z" fill="rgb(247,196,167)" stroke="none" stroke-width="1"/><path id="ekjb92w9ec8i62" d="M220.890000,208.082000L219.890000,223.842000C219.890000,223.842000,219.890000,229.742000,216.890000,230.732000C213.890000,231.722000,198.190000,229.732000,198.190000,229.732000C198.190000,229.732000,192.290000,229.732000,193.270000,224.812000C194.250000,219.892000,199.170000,218.912000,201.140000,218.912000C203.110000,218.912000,206.060000,220.912000,206.060000,220.912000L209.060000,220.912000L208.290000,209.082000L220.890000,208.082000Z" opacity="0.1" fill="rgb(0,0,0)" stroke="none" stroke-width="1"/><path id="ekjb92w9ec8i63" d="M221.390000,208.082000L220.390000,223.842000C220.390000,223.842000,220.390000,229.742000,217.390000,230.732000C214.390000,231.722000,198.690000,229.732000,198.690000,229.732000C198.690000,229.732000,192.790000,229.732000,193.770000,224.812000C194.750000,219.892000,199.670000,218.912000,201.640000,218.912000C203.610000,218.912000,206.560000,220.912000,206.560000,220.912000L209.560000,220.912000L208.780000,209.082000L221.390000,208.082000Z" fill="rgb(247,196,167)" stroke="none" stroke-width="1"/><path id="ekjb92w9ec8i64" d="M170.470000,208.602000C170.470000,208.602000,174.470000,212.602000,182.770000,211.222000C183.660000,211.082000,171.960000,206.872000,170.470000,208.602000Z" opacity="0.1" fill="rgb(0,0,0)" stroke="none" stroke-width="1"/><path id="ekjb92w9ec8i65" d="M207.550000,212.552000C207.550000,212.552000,222.870000,212.302000,221.640000,207.362000C220.410000,202.422000,208.540000,205.142000,208.540000,205.142000L207.550000,212.552000Z" opacity="0.1" fill="rgb(0,0,0)" stroke="none" stroke-width="1"/><path id="ekjb92w9ec8i66" d="M170.470000,208.352000C170.470000,208.352000,175.410000,213.292000,185.540000,210.352000C195.670000,207.412000,171.960000,206.622000,170.470000,208.352000Z" fill="rgb(252,102,129)" stroke="none" stroke-width="1"/><path id="ekjb92w9ec8i67" d="M207.300000,212.312000C207.300000,212.312000,222.620000,212.062000,221.390000,207.122000C220.160000,202.182000,208.290000,204.902000,208.290000,204.902000L207.300000,212.312000Z" fill="rgb(252,102,129)" stroke="none" stroke-width="1"/><path id="ekjb92w9ec8i68" d="M185.940000,171.942000C185.940000,171.942000,188.940000,182.762000,186.940000,185.722000C184.940000,188.682000,193.140000,194.792000,196.690000,194.722000C198.800000,194.722000,206.270000,189.462000,205.640000,185.722000C205.130000,182.652000,200.720000,173.912000,201.700000,169.982000L185.940000,171.942000Z" fill="rgb(247,196,167)" stroke="none" stroke-width="1"/><path id="ekjb92w9ec8i69" d="M195.290000,185.492000C198.600000,185.487000,201.796000,184.287000,204.290000,182.112000C202.880000,178.252000,200.970000,173.202000,201.650000,170.472000L185.910000,172.472000C185.910000,172.472000,187.660000,178.882000,187.570000,183.182000C189.854000,184.708000,192.544000,185.512000,195.290000,185.492000L195.290000,185.492000Z" opacity="0.1" fill="rgb(0,0,0)" stroke="none" stroke-width="1"/><path id="ekjb92w9ec8i70" d="M195.290000,185.002000C202.901000,185.002000,209.070000,178.832000,209.070000,171.222000C209.070000,163.611000,202.901000,157.442000,195.290000,157.442000C187.680000,157.442000,181.510000,163.611000,181.510000,171.222000C181.510000,178.832000,187.680000,185.002000,195.290000,185.002000Z" fill="rgb(247,196,167)" stroke="none" stroke-width="1"/><path id="ekjb92w9ec8i71" d="M186.900000,177.292000C186.560000,175.992000,186.030000,174.752000,185.760000,173.442000C185.320000,171.033000,185.727000,168.545000,186.912000,166.402000C188.096000,164.258000,189.986000,162.591000,192.260000,161.682000C192.932000,161.398000,193.666000,161.291000,194.390000,161.372000C197.310000,161.842000,197.740000,166.372000,200.510000,167.442000C201.060000,167.652000,201.660000,167.692000,202.220000,167.882000C202.953000,168.208000,203.602000,168.695000,204.121000,169.306000C204.641000,169.917000,205.016000,170.636000,205.220000,171.412000C205.796000,173.077000,206.015000,174.846000,205.860000,176.602000C205.710000,178.272000,205.230000,179.902000,205.100000,181.602000C204.983000,182.432000,205.038000,183.278000,205.262000,184.087000C205.486000,184.895000,205.873000,185.649000,206.400000,186.302000C206.992000,186.868000,207.666000,187.340000,208.400000,187.702000C208.910000,187.982000,209.550000,188.262000,210.030000,187.942000C210.246000,187.772000,210.406000,187.543000,210.490000,187.282000C211.210000,185.512000,210.860000,183.522000,210.690000,181.622000C210.497000,178.704000,210.527000,175.775000,210.780000,172.862000C210.930000,170.502000,211.080000,168.052000,210.220000,165.862000C209.580000,164.403000,208.717000,163.054000,207.660000,161.862000C206.761000,160.670000,205.716000,159.595000,204.550000,158.662000C202.328000,157.138000,199.685000,156.348000,196.990000,156.402000C194.316000,156.454000,191.654000,156.789000,189.050000,157.402000C187.140000,157.792000,185.050000,158.282000,183.900000,159.832000C183.341000,160.684000,182.947000,161.634000,182.740000,162.632000L181.950000,165.512000C180.976000,168.560000,180.389000,171.718000,180.200000,174.912000C180.200000,177.242000,180.560000,182.282000,183.200000,183.292000C186.630000,184.622000,187.470000,179.532000,186.900000,177.292000Z" opacity="0.1" fill="rgb(0,0,0)" stroke="none" stroke-width="1"/><path id="ekjb92w9ec8i72" d="M186.900000,176.802000C186.560000,175.502000,186.030000,174.262000,185.760000,172.952000C185.320000,170.543000,185.727000,168.055000,186.912000,165.912000C188.096000,163.768000,189.986000,162.101000,192.260000,161.192000C192.932000,160.908000,193.666000,160.801000,194.390000,160.882000C197.310000,161.352000,197.740000,165.882000,200.510000,166.952000C201.060000,167.162000,201.660000,167.202000,202.220000,167.392000C202.953000,167.718000,203.602000,168.205000,204.121000,168.816000C204.641000,169.427000,205.016000,170.146000,205.220000,170.922000C205.796000,172.587000,206.015000,174.356000,205.860000,176.112000C205.710000,177.782000,205.230000,179.412000,205.100000,181.112000C204.983000,181.942000,205.038000,182.788000,205.262000,183.597000C205.486000,184.405000,205.873000,185.159000,206.400000,185.812000C206.992000,186.378000,207.666000,186.850000,208.400000,187.212000C208.910000,187.492000,209.550000,187.772000,210.030000,187.452000C210.246000,187.282000,210.406000,187.053000,210.490000,186.792000C211.210000,185.022000,210.860000,183.032000,210.690000,181.132000C210.497000,178.214000,210.527000,175.285000,210.780000,172.372000C210.930000,170.012000,211.080000,167.562000,210.220000,165.372000C209.580000,163.913000,208.717000,162.564000,207.660000,161.372000C206.761000,160.180000,205.716000,159.105000,204.550000,158.172000C202.328000,156.648000,199.685000,155.858000,196.990000,155.912000C194.316000,155.963000,191.654000,156.299000,189.050000,156.912000C187.140000,157.302000,185.050000,157.792000,183.900000,159.342000C183.341000,160.194000,182.947000,161.144000,182.740000,162.142000L181.950000,165.022000C180.976000,168.070000,180.389000,171.228000,180.200000,174.422000C180.200000,176.752000,180.560000,181.792000,183.200000,182.802000C186.630000,184.082000,187.470000,179.082000,186.900000,176.802000Z" fill="rgb(150,93,123)" stroke="none" stroke-width="1"/></g><path id="ekjb92w9ec8i73" d="M135.690000,141.250000C135.690000,141.250000,147.510000,166.070000,178.830000,141.250000Z" fill="rgb(83,109,254)" stroke="none" stroke-width="1"/><path id="ekjb92w9ec8i74" d="M178.240000,141.250000C178.240000,141.250000,190.060000,166.070000,221.380000,141.250000Z" fill="rgb(83,109,254)" stroke="none" stroke-width="1"/><path id="ekjb92w9ec8i75" d="M220.780000,141.250000C220.780000,141.250000,232.600000,166.070000,263.920000,141.250000Z" fill="rgb(83,109,254)" stroke="none" stroke-width="1"/><path id="ekjb92w9ec8i76" d="M263.330000,141.250000C263.330000,141.250000,275.150000,166.070000,306.470000,141.250000Z" fill="rgb(83,109,254)" stroke="none" stroke-width="1"/><path id="ekjb92w9ec8i77" d="M305.880000,141.250000C305.880000,141.250000,317.700000,166.070000,349.020000,141.250000Z" fill="rgb(83,109,254)" stroke="none" stroke-width="1"/><path id="ekjb92w9ec8i78" d="M348.430000,141.250000C348.430000,141.250000,360.250000,166.070000,391.570000,141.250000Z" fill="rgb(83,109,254)" stroke="none" stroke-width="1"/><path id="ekjb92w9ec8i79" d="M390.980000,141.250000C390.980000,141.250000,402.800000,166.070000,434.120000,141.250000Z" fill="rgb(83,109,254)" stroke="none" stroke-width="1"/><path id="ekjb92w9ec8i80" d="M433.520000,141.250000C433.520000,141.250000,445.340000,158.980000,453.610000,142.430000Z" fill="rgb(83,109,254)" stroke="none" stroke-width="1"/><path id="ekjb92w9ec8i81" d="M135.690000,141.250000C135.690000,141.250000,147.510000,166.070000,178.830000,141.250000Z" opacity="0.1" fill="rgb(0,0,0)" stroke="none" stroke-width="1"/><path id="ekjb92w9ec8i82" d="M178.240000,141.250000C178.240000,141.250000,190.060000,166.070000,221.380000,141.250000Z" opacity="0.1" fill="rgb(0,0,0)" stroke="none" stroke-width="1"/><path id="ekjb92w9ec8i83" d="M220.780000,141.250000C220.780000,141.250000,232.600000,166.070000,263.920000,141.250000Z" opacity="0.1" fill="rgb(0,0,0)" stroke="none" stroke-width="1"/><path id="ekjb92w9ec8i84" d="M263.330000,141.250000C263.330000,141.250000,275.150000,166.070000,306.470000,141.250000Z" opacity="0.1" fill="rgb(0,0,0)" stroke="none" stroke-width="1"/><path id="ekjb92w9ec8i85" d="M305.880000,141.250000C305.880000,141.250000,317.700000,166.070000,349.020000,141.250000Z" opacity="0.1" fill="rgb(0,0,0)" stroke="none" stroke-width="1"/><path id="ekjb92w9ec8i86" d="M348.430000,141.250000C348.430000,141.250000,360.250000,166.070000,391.570000,141.250000Z" opacity="0.1" fill="rgb(0,0,0)" stroke="none" stroke-width="1"/><path id="ekjb92w9ec8i87" d="M390.980000,141.250000C390.980000,141.250000,402.800000,166.070000,434.120000,141.250000Z" opacity="0.1" fill="rgb(0,0,0)" stroke="none" stroke-width="1"/><path id="ekjb92w9ec8i88" d="M433.520000,141.250000C433.520000,141.250000,445.340000,158.980000,453.610000,142.430000Z" opacity="0.1" fill="rgb(0,0,0)" stroke="none" stroke-width="1"/><path id="ekjb92w9ec8i89" d="M453.020000,141.840000L93.730000,141.840000L119.730000,85.110000L425.840000,85.110000L453.020000,141.840000Z" fill="rgb(83,254,213)" stroke="none" stroke-width="1"/><path id="ekjb92w9ec8i90" d="M453.020000,141.840000L93.730000,141.840000L119.730000,85.110000L425.840000,85.110000L453.020000,141.840000Z" opacity="0.1" fill="rgb(39,140,163)" stroke="none" stroke-width="1"/><path id="ekjb92w9ec8i91" d="M93.140000,141.250000C93.140000,141.250000,104.960000,166.070000,136.280000,141.250000Z" fill="rgb(83,109,254)" stroke="none" stroke-width="1"/><path id="ekjb92w9ec8i92" d="M93.140000,141.250000C93.140000,141.250000,104.960000,166.070000,136.280000,141.250000Z" opacity="0.1" fill="rgb(0,0,0)" stroke="none" stroke-width="1"/><path id="ekjb92w9ec8i93" d="M418.750000,241.120000L128,241.120000L128,262.390000L418.750000,262.390000L418.750000,241.120000Z" fill="rgb(107,107,113)" stroke="none" stroke-width="1"/><path id="ekjb92w9ec8i94" d="M438.840000,219.840000L106.730000,219.840000L106.730000,248.210000L438.840000,248.210000L438.840000,219.840000Z" fill="rgb(60,60,68)" stroke="none" stroke-width="1"/><path id="ekjb92w9ec8i95" d="M418.750000,248.210000L128,248.210000L128,251.760000L418.750000,251.760000L418.750000,248.210000Z" opacity="0.1" fill="rgb(0,0,0)" stroke="none" stroke-width="1"/></g><g id="ekjb92w9ec8i96" transform="matrix(0.99984769515639 -0.01745240643728 0.01745240643728 0.99984769515639 -4.73159986970302 16.94434650410858)"><path id="ekjb92w9ec8i97" d="M970.064000,366.132000C970.064000,366.132000,983.274000,321.262000,967.584000,288.242000C960.914000,274.433000,958.903000,258.832000,961.854000,243.782000C963.309000,236.648000,965.414000,229.662000,968.144000,222.912000" fill="none" stroke="rgb(83,84,97)" stroke-width="2" stroke-miterlimit="10"/><path id="ekjb92w9ec8i98" d="M958.384000,202.052000C958.384000,207.552000,968.384000,223.492000,968.384000,223.492000C968.384000,223.492000,978.384000,207.542000,978.384000,202.052000C978.148000,199.575000,976.998000,197.275000,975.157000,195.602000C973.316000,193.928000,970.917000,193,968.429000,193C965.941000,193,963.542000,193.928000,961.701000,195.602000C959.861000,197.275000,958.710000,199.575000,958.474000,202.052000L958.384000,202.052000Z" fill="rgb(40,249,136)" stroke="none" stroke-width="1"/><path id="ekjb92w9ec8i99" d="M941.924000,232.502000C944.924000,237.122000,961.924000,245.092000,961.924000,245.092000C961.924000,245.092000,961.614000,226.292000,958.624000,221.682000C957.979000,220.451000,957.084000,219.367000,955.996000,218.500000C954.909000,217.634000,953.652000,217.004000,952.307000,216.650000C950.962000,216.297000,949.558000,216.228000,948.185000,216.448000C946.812000,216.667000,945.500000,217.171000,944.333000,217.926000C943.165000,218.682000,942.168000,219.673000,941.405000,220.835000C940.642000,221.998000,940.130000,223.307000,939.901000,224.678000C939.673000,226.050000,939.733000,227.454000,940.078000,228.802000C940.423000,230.149000,941.045000,231.409000,941.904000,232.502000L941.924000,232.502000Z" fill="rgb(40,249,136)" stroke="none" stroke-width="1"/><path id="ekjb92w9ec8i100" d="M942.644000,284.552000C947.554000,287.032000,966.274000,285.322000,966.274000,285.322000C966.274000,285.322000,956.514000,269.252000,951.604000,266.772000C950.426000,266.045000,949.110000,265.569000,947.739000,265.377000C946.368000,265.184000,944.971000,265.279000,943.638000,265.654000C942.306000,266.029000,941.065000,266.677000,939.996000,267.557000C938.927000,268.436000,938.051000,269.528000,937.426000,270.764000C936.801000,271.999000,936.439000,273.351000,936.363000,274.733000C936.287000,276.116000,936.500000,277.499000,936.987000,278.795000C937.473000,280.092000,938.224000,281.273000,939.191000,282.264000C940.158000,283.255000,941.320000,284.034000,942.604000,284.552000L942.644000,284.552000Z" fill="rgb(40,249,136)" stroke="none" stroke-width="1"/><path id="ekjb92w9ec8i101" d="M952.054000,323.812000C956.474000,327.082000,975.214000,328.562000,975.214000,328.562000C975.214000,328.562000,968.314000,311.072000,963.894000,307.802000C961.763000,306.527000,959.234000,306.091000,956.800000,306.577000C954.365000,307.064000,952.198000,308.439000,950.721000,310.435000C949.243000,312.431000,948.562000,314.905000,948.808000,317.376000C949.055000,319.847000,950.212000,322.137000,952.054000,323.802000L952.054000,323.812000Z" fill="rgb(40,249,136)" stroke="none" stroke-width="1"/><path id="ekjb92w9ec8i102" d="M982.814000,246.162000C978.874000,249.992000,960.494000,253.962000,960.494000,253.962000C960.494000,253.962000,964.994000,235.712000,968.934000,231.882000C969.838000,230.825000,970.952000,229.967000,972.206000,229.364000C973.460000,228.762000,974.826000,228.427000,976.216000,228.382000C977.607000,228.338000,978.992000,228.584000,980.282000,229.105000C981.572000,229.625000,982.739000,230.410000,983.709000,231.407000C984.678000,232.405000,985.429000,233.594000,985.913000,234.898000C986.397000,236.203000,986.604000,237.594000,986.520000,238.982000C986.435000,240.371000,986.062000,241.727000,985.424000,242.963000C984.786000,244.200000,983.897000,245.289000,982.814000,246.162000Z" fill="rgb(40,249,136)" stroke="none" stroke-width="1"/><path id="ekjb92w9ec8i103" d="M993.264000,292.212000C988.354000,294.692000,969.634000,292.982000,969.634000,292.982000C969.634000,292.982000,979.394000,276.912000,984.304000,274.432000C986.627000,273.494000,989.218000,273.463000,991.564000,274.343000C993.909000,275.224000,995.839000,276.953000,996.970000,279.189000C998.102000,281.424000,998.353000,284.003000,997.674000,286.415000C996.995000,288.827000,995.436000,290.896000,993.304000,292.212000L993.264000,292.212000Z" fill="rgb(40,249,136)" stroke="none" stroke-width="1"/><path id="ekjb92w9ec8i104" d="M997.254000,348.362000C992.834000,351.632000,974.094000,353.112000,974.094000,353.112000C974.094000,353.112000,980.994000,335.622000,985.414000,332.352000C987.545000,331.077000,990.074000,330.641000,992.509000,331.127000C994.944000,331.614000,997.110000,332.989000,998.588000,334.985000C1000.060000,336.981000,1000.750000,339.455000,1000.500000,341.926000C1000.250000,344.397000,999.096000,346.687000,997.254000,348.352000L997.254000,348.362000Z" fill="rgb(40,249,136)" stroke="none" stroke-width="1"/></g><g id="ekjb92w9ec8i105" transform="matrix(1 0 0 1 11.51229071617126 20.31067382499998)"><path id="ekjb92w9ec8i106" d="M0.763319,269.309000C0.763319,269.309000,0.213317,274.709000,3.503320,277.419000C3.503320,277.419000,13.693300,290.839000,18.763300,298.419000C18.473300,300.479000,18.273300,301.729000,18.273300,301.729000L18.273300,302.009000L18.403300,302.009000L18.273300,302.849000L18.413300,302.849000C15.523300,313.199000,14.413300,328.289000,14.413300,328.289000L14.413300,328.869000C14.413300,329.189000,14.413300,329.369000,14.413300,329.369000C14.413300,329.369000,15.593300,346.629000,15.633300,360.009000C15.633300,366.519000,15.303300,371.939000,14.413300,373.689000C13.283300,375.909000,12.903300,386.809000,12.913300,399.179000C12.913300,417.119000,13.753300,438.649000,14.413300,441.249000C14.551400,441.731000,14.821600,442.164000,15.193300,442.499000C14.193300,446.499000,12.283300,452.109000,9.483320,453.139000C8.517380,453.496000,7.674570,454.123000,7.055660,454.946000C6.436750,455.769000,6.067930,456.752000,5.993310,457.779000C5.993310,457.779000,5.993310,457.779000,5.993310,457.839000C5.993310,457.899000,5.993310,458.059000,5.993310,458.179000L5.993310,458.259000C5.993310,458.359000,5.993310,458.459000,5.993310,458.559000L5.993310,458.659000C5.993310,458.759000,5.993310,458.849000,6.063310,458.949000L6.063310,459.049000C6.063310,459.139000,6.123320,459.239000,6.163320,459.329000L6.163320,459.419000C6.163320,459.519000,6.253320,459.609000,6.303320,459.699000L6.303320,459.769000C6.442990,460.006000,6.610890,460.224000,6.803320,460.419000L6.803320,460.419000L7.073320,460.659000L7.183320,460.739000L7.433320,460.909000L7.583320,460.999000L7.843320,461.139000L8.023320,461.219000L8.303320,461.329000L8.503320,461.399000L8.813310,461.489000L9.033320,461.549000L9.383310,461.619000L9.613320,461.619000L10.033300,461.619000L10.243300,461.619000L10.923300,461.619000C18.043300,461.619000,21.873300,459.999000,24.063300,456.759000L28.443300,455.679000L28.443300,455.559000L28.443300,455.429000L28.443300,455.339000L28.443300,455.249000L28.443300,455.119000L28.443300,454.949000L28.443300,454.739000L28.443300,454.649000L28.443300,454.439000L28.543300,453.919000L28.543300,453.889000L28.593300,453.599000C28.643300,453.289000,28.703300,452.959000,28.763300,452.599000L28.763300,452.539000C28.823300,452.179000,28.873300,451.799000,28.933300,451.399000C28.993300,450.999000,29.043300,450.589000,29.093300,450.159000L29.093300,450.109000C29.093300,449.689000,29.183300,449.259000,29.223300,448.819000L29.223300,448.749000L29.223300,448.319000L29.223300,448.269000C29.223300,447.989000,29.243300,447.709000,29.283300,447.429000L29.283300,447.369000C29.283300,447.236000,29.283300,447.103000,29.283300,446.969000L29.283300,446.839000C29.283300,446.579000,29.283300,446.319000,29.283300,446.059000L29.713300,446.059000L33.543300,385.529000L47.223300,331.529000L53.783300,376.859000C53.783300,378.349000,53.783300,381.369000,53.783300,385.209000C53.783300,398.119000,54.033300,421.909000,56.013300,425.039000C56.863300,426.389000,57.193300,428.949000,57.223300,431.839000C57.104100,436.261000,56.699900,440.670000,56.013300,445.039000L56.173300,445.039000C56.073300,445.729000,56.013300,446.129000,56.013300,446.129000L56.513300,446.129000C56.153300,449.669000,56.053300,453.509000,56.023300,455.339000L56.023300,455.589000C56.023300,456.109000,56.023300,456.419000,56.023300,456.419000C56.023300,456.419000,65.333300,457.499000,66.973300,457.499000C76.153300,457.499000,87.773300,461.819000,91.603300,459.119000L91.933300,458.859000L92.003300,458.799000L92.203300,458.609000L92.253300,458.549000L92.403300,458.359000L92.403300,458.309000C92.444900,458.246000,92.481700,458.179000,92.513300,458.109000L92.513300,458.109000C92.539700,458.041000,92.559800,457.971000,92.573300,457.899000L92.573300,457.899000C92.580800,457.826000,92.580800,457.752000,92.573300,457.679000L92.573300,457.679000C92.581100,457.603000,92.581100,457.526000,92.573300,457.449000C92.043300,455.539000,86.623300,453.869000,82.823300,452.199000C79.543300,450.759000,76.753300,445.249000,75.253300,441.729000C75.507900,441.438000,75.690300,441.090000,75.785800,440.715000C75.881400,440.340000,75.887400,439.947000,75.803300,439.569000C75.908700,439.097000,75.877400,438.605000,75.713300,438.149000C73.713300,432.149000,73.073300,381.549000,72.983300,373.759000L77.903300,338.699000C78.390200,336.606000,78.578700,334.455000,78.463300,332.309000C78.533300,324.309000,76.913300,310.599000,75.913300,303.049000L77.353300,303.049000L77.173300,301.969000L77.353300,301.969000L75.163300,288.969000L75.163300,272.019000L77.903300,242.289000L81.183300,244.449000C81.433300,244.449000,81.903300,244.089000,82.513300,243.449000C89.513300,246.519000,98.513300,250.449000,103.623000,252.509000C112.933000,256.289000,113.473000,252.509000,113.473000,252.509000L131.533000,217.379000C131.533000,217.379000,163.283000,204.379000,152.883000,198.999000C142.483000,193.619000,127.703000,204.399000,125.513000,209.809000C123.323000,215.219000,110.733000,232.509000,107.993000,235.749000C105.253000,238.989000,103.613000,236.829000,100.873000,234.129000C98.552000,232.092000,96.111000,230.195000,93.563300,228.449000L93.763300,228.179000C92.653800,227.679000,91.670000,226.938000,90.883300,226.009000C86.543300,221.119000,77.203300,211.289000,71.883300,210.889000C65.253300,210.389000,56.733300,203.799000,55.593300,202.889000C55.465400,201.298000,55.485500,199.697000,55.653300,198.109000L55.703300,198.109000C55.703300,197.929000,55.703300,197.739000,55.763300,197.559000C59.532000,196.774000,62.916900,194.719000,65.352200,191.737000C67.787600,188.756000,69.125800,185.029000,69.143300,181.179000C69.143300,180.759000,69.143300,180.339000,69.093300,179.919000C69.191000,179.950000,69.295700,179.950000,69.393300,179.919000C70.093300,179.719000,70.473300,173.079000,70.473300,172.169000C70.511600,171.551000,70.650100,170.943000,70.883300,170.369000C71.113300,169.869000,71.493300,169.439000,71.713300,168.929000C71.888700,168.488000,71.953900,168.011000,71.903300,167.539000C71.894000,166.468000,71.626400,165.415000,71.123300,164.469000C69.592800,160.649000,67.626400,157.019000,65.263300,153.649000C64.929800,153.140000,64.472100,152.723000,63.933300,152.439000C63.316900,152.243000,62.667600,152.172000,62.023300,152.229000C59.023300,152.229000,56.223300,150.789000,53.373300,149.839000C50.523300,148.889000,47.153300,148.449000,44.693300,150.149000C42.233300,151.849000,41.303300,155.219000,38.693300,156.569000C37.973300,156.929000,37.173300,157.119000,36.463300,157.509000C35.711200,158.187000,35.084900,158.993000,34.613300,159.889000C33.089700,161.574000,31.898800,163.532000,31.103300,165.659000C30.719600,167.124000,30.557800,168.637000,30.623300,170.149000C30.623300,170.649000,30.623300,171.149000,30.623300,171.659000C30.623300,174.659000,30.943300,178.099000,33.393300,179.869000C33.950500,180.271000,34.431400,180.769000,34.813300,181.339000C35.262200,182.069000,35.491300,182.913000,35.473300,183.769000C35.593300,185.439000,36.253300,187.109000,36.373300,188.769000C36.359700,189.406000,36.526100,190.033000,36.853300,190.579000C36.941800,190.710000,37.055200,190.822000,37.187000,190.909000C37.318900,190.996000,37.466700,191.056000,37.621900,191.086000C37.777000,191.116000,37.936500,191.115000,38.091200,191.083000C38.245900,191.051000,38.392800,190.988000,38.523300,190.899000L38.623300,190.479000C38.803300,190.739000,38.983300,190.999000,39.173300,191.249000C38.543300,194.829000,37.553300,198.699000,35.973300,201.249000L35.613300,201.249000C33.008000,201.270000,30.473800,202.102000,28.363300,203.629000C22.213300,207.999000,9.553320,211.519000,9.553320,211.519000C8.609130,212.425000,7.999350,213.623000,7.823320,214.919000C5.476530,220.283000,3.589750,225.836000,2.183320,231.519000L2.183320,231.519000C1.133320,235.579000,0.473317,238.979000,0.573317,240.209000L0.573317,240.429000L0.653318,240.429000L0.563314,240.909000L2.503320,241.379000C0.993317,249.469000,-1.166680,263.969000,0.763319,269.309000ZM12.763300,266.609000C14.192000,263.035000,15.437000,259.391000,16.493300,255.689000C17.703300,259.349000,18.883300,262.239000,19.883300,263.369000C20.883300,264.499000,21.213300,267.369000,21.243300,271.249000C21.273300,275.129000,20.883300,279.739000,20.443300,284.189000C17.421300,278.548000,14.866100,272.668000,12.803300,266.609000L12.763300,266.609000Z" fill="url(#ekjb92w9ec8i106-fill)" stroke="none" stroke-width="1"/><path id="ekjb92w9ec8i107" d="M74.743300,436.419000C74.743300,436.419000,78.473300,447.609000,83.263300,449.739000C88.053300,451.869000,95.513300,453.999000,91.783300,456.659000C88.053300,459.319000,76.783300,455.059000,67.783300,455.059000C66.183300,455.059000,57.133300,453.989000,57.133300,453.989000C57.133300,453.989000,57.133300,439.609000,59.263300,436.989000C61.393300,434.369000,74.743300,436.419000,74.743300,436.419000Z" fill="rgb(89,73,93)" stroke="none" stroke-width="1"/><path id="ekjb92w9ec8i108" d="M17.753300,436.419000C17.753300,436.419000,15.623300,449.199000,11.363300,450.799000C7.103300,452.399000,6.033300,459.319000,12.963300,459.319000C19.893300,459.319000,23.613300,457.719000,25.743300,454.529000L30.003300,453.459000C30.003300,453.459000,32.663300,441.209000,30.003300,438.009000L17.753300,436.419000Z" fill="rgb(89,73,93)" stroke="none" stroke-width="1"/><path id="ekjb92w9ec8i109" d="M74.743300,436.419000C74.743300,436.419000,78.473300,447.609000,83.263300,449.739000C88.053300,451.869000,95.513300,453.999000,91.783300,456.659000C88.053300,459.319000,76.783300,455.059000,67.783300,455.059000C66.183300,455.059000,57.133300,453.989000,57.133300,453.989000C57.133300,453.989000,57.133300,439.609000,59.263300,436.989000C61.393300,434.369000,74.743300,436.419000,74.743300,436.419000Z" fill="rgb(89,73,93)" stroke="none" stroke-width="1"/><path id="ekjb92w9ec8i110" d="M17.753300,436.419000C17.753300,436.419000,15.623300,449.199000,11.363300,450.799000C7.103300,452.399000,6.033300,459.319000,12.963300,459.319000C19.893300,459.319000,23.613300,457.719000,25.743300,454.529000L30.003300,453.459000C30.003300,453.459000,32.663300,441.209000,30.003300,438.009000L17.753300,436.419000Z" fill="rgb(89,73,93)" stroke="none" stroke-width="1"/><path id="ekjb92w9ec8i111" d="M88.063300,225.489000C88.063300,225.489000,98.183300,232.409000,100.843000,235.079000C103.503000,237.749000,105.103000,239.869000,107.763000,236.679000C110.423000,233.489000,122.673000,216.439000,124.763000,211.109000C126.853000,205.779000,141.273000,195.109000,151.393000,200.459000C161.513000,205.809000,130.623000,218.569000,130.623000,218.569000L113.093000,253.189000C113.093000,253.189000,112.563000,256.919000,103.503000,253.189000C94.443300,249.459000,73.143300,239.889000,73.143300,239.889000L88.063300,225.489000Z" fill="rgb(240,185,187)" stroke="none" stroke-width="1"/><path id="ekjb92w9ec8i112" d="M75.813300,298.469000C75.813300,298.469000,80.603300,331.469000,78.473300,337.889000L73.683300,372.509000C73.683300,372.509000,74.213300,430.569000,76.343300,436.959000C78.473300,443.349000,57.163300,443.889000,57.163300,443.889000C57.163300,443.889000,59.823300,427.379000,57.163300,423.119000C54.503300,418.859000,55.033300,375.709000,55.033300,375.709000L48.613300,330.959000L35.293300,384.219000L31.613300,443.889000C31.613300,443.889000,17.233300,443.359000,16.163300,439.099000C15.093300,434.839000,13.503300,378.909000,16.163300,373.579000C18.823300,368.249000,16.163300,328.839000,16.163300,328.839000C16.163300,328.839000,18.293300,298.479000,24.683300,294.749000C31.073300,291.019000,75.813300,298.469000,75.813300,298.469000Z" opacity="0.1" fill="rgb(0,0,0)" stroke="none" stroke-width="1"/><path id="ekjb92w9ec8i113" d="M75.813300,297.399000C75.813300,297.399000,80.603300,330.399000,78.473300,336.819000L73.683300,371.439000C73.683300,371.439000,74.213300,429.499000,76.343300,435.889000C78.473300,442.279000,57.163300,442.809000,57.163300,442.809000C57.163300,442.809000,59.823300,426.299000,57.163300,422.039000C54.503300,417.779000,55.033300,374.629000,55.033300,374.629000L48.613300,329.889000L35.293300,383.149000L31.613300,442.809000C31.613300,442.809000,17.233300,442.279000,16.163300,438.019000C15.093300,433.759000,13.503300,377.829000,16.163300,372.499000C18.823300,367.169000,16.163300,327.759000,16.163300,327.759000C16.163300,327.759000,18.293300,297.399000,24.683300,293.669000C31.073300,289.939000,75.813300,297.399000,75.813300,297.399000Z" fill="rgb(117,167,225)" stroke="none" stroke-width="1"/><path id="ekjb92w9ec8i114" d="M41.183300,183.949000C41.183300,183.949000,40.113300,209.519000,31.063300,204.719000L39.063300,228.719000L57.173300,227.649000L67.823300,213.269000L59.823300,208.479000C59.823300,208.479000,53.963300,210.609000,58.223300,190.899000L41.183300,183.949000Z" fill="rgb(240,185,187)" stroke="none" stroke-width="1"/><path id="ekjb92w9ec8i115" d="M56.613300,205.249000C56.613300,205.249000,65.663300,212.709000,72.613300,213.249000C77.803300,213.649000,86.893300,223.339000,91.113300,228.159000C91.876000,229.072000,92.832500,229.803000,93.913300,230.299000C93.913300,230.299000,83.263300,245.209000,81.663300,245.209000L78.463300,243.079000L75.803300,272.379000L75.803300,289.959000L77.933300,302.739000C77.933300,302.739000,44.373300,303.269000,41.183300,300.609000C37.993300,297.949000,19.873300,302.739000,19.873300,302.739000C19.873300,302.739000,25.203300,268.119000,21.473300,263.859000C17.743300,259.599000,11.353300,229.769000,11.353300,229.769000C11.353300,229.769000,7.093320,217.519000,11.353300,213.769000C11.353300,213.769000,23.663300,210.309000,29.653300,205.999000C31.698300,204.495000,34.164900,203.673000,36.703300,203.649000L37.093300,203.649000C37.093300,203.649000,37.453300,211.649000,45.443300,213.239000C53.433300,214.829000,58.493300,211.889000,56.613300,205.249000Z" opacity="0.1" fill="rgb(0,0,0)" stroke="none" stroke-width="1"/><path id="ekjb92w9ec8i116" d="M56.613300,204.189000C56.613300,204.189000,65.663300,211.649000,72.613300,212.189000C77.803300,212.589000,86.893300,222.279000,91.113300,227.099000C91.876000,228.012000,92.832500,228.743000,93.913300,229.239000C93.913300,229.239000,83.263300,244.149000,81.663300,244.149000L78.463300,242.019000L75.803300,271.319000L75.803300,288.889000L77.933300,301.669000C77.933300,301.669000,44.373300,302.199000,41.183300,299.539000C37.993300,296.879000,19.873300,301.669000,19.873300,301.669000C19.873300,301.669000,25.203300,267.049000,21.473300,262.789000C17.743300,258.529000,11.353300,228.699000,11.353300,228.699000C11.353300,228.699000,7.093320,216.449000,11.353300,212.699000C11.353300,212.699000,23.663300,209.239000,29.653300,204.929000C31.698300,203.425000,34.164900,202.603000,36.703300,202.579000L37.093300,202.579000C37.093300,202.579000,37.453300,210.579000,45.443300,212.169000C53.433300,213.759000,58.493300,210.889000,56.613300,204.189000Z" fill="rgb(72,76,81)" stroke="none" stroke-width="1"/><path id="ekjb92w9ec8i117" d="M20.413300,243.599000C20.413300,243.599000,4.413310,241.469000,2.833310,241.469000C1.253310,241.469000,8.163300,215.369000,11.883300,212.709000C15.603300,210.049000,20.403300,222.299000,20.403300,222.299000L20.413300,243.599000Z" fill="rgb(89,73,93)" stroke="none" stroke-width="1"/><path id="ekjb92w9ec8i118" d="M58.533300,205.889000C59.183300,210.649000,55.793300,213.099000,50.253300,212.839000C55.333300,212.559000,58.093300,209.639000,56.633300,204.439000C56.613300,204.449000,57.353300,205.039000,58.533300,205.889000Z" opacity="0.1" fill="rgb(0,0,0)" stroke="none" stroke-width="1"/><path id="ekjb92w9ec8i119" d="M80.073300,242.269000L82.503300,243.889000C82.280500,244.134000,81.992700,244.311000,81.673300,244.399000L79.983300,243.269000L80.073300,242.269000Z" opacity="0.1" fill="rgb(0,0,0)" stroke="none" stroke-width="1"/><path id="ekjb92w9ec8i120" d="M11.363300,228.959000C11.363300,228.959000,19.363300,258.789000,23.083300,263.049000C26.573300,267.049000,22.133300,297.589000,21.553300,301.519000L19.893300,301.939000C19.893300,301.939000,25.223300,267.319000,21.493300,263.059000C17.763300,258.799000,11.363300,228.959000,11.363300,228.959000Z" opacity="0.1" fill="rgb(0,0,0)" stroke="none" stroke-width="1"/><path id="ekjb92w9ec8i121" d="M42.783300,299.799000C45.013300,301.659000,61.963300,301.959000,72.053300,301.969000C62.273300,301.969000,43.533300,301.749000,41.193300,299.799000C40.258500,299.232000,39.175500,298.957000,38.083300,299.009000C40.243300,298.889000,41.983300,299.129000,42.783300,299.799000Z" opacity="0.1" fill="rgb(0,0,0)" stroke="none" stroke-width="1"/><path id="ekjb92w9ec8i122" d="M5.503300,236.679000C5.503300,236.679000,0.173307,262.249000,2.843310,269.679000C2.843310,269.679000,2.313300,275.009000,5.503300,277.679000C5.503300,277.679000,23.083300,301.119000,23.083300,303.249000C23.083300,305.379000,28.413300,315.499000,37.463300,306.979000C37.463300,306.979000,41.723300,301.119000,32.133300,296.329000C22.543300,291.539000,14.553300,267.029000,14.553300,267.029000C14.553300,267.029000,22.553300,247.319000,19.343300,240.929000C16.133300,234.539000,5.503300,236.679000,5.503300,236.679000Z" fill="rgb(240,185,187)" stroke="none" stroke-width="1"/><path id="ekjb92w9ec8i123" d="M22.273300,246.529000L2.563320,241.739000L4.173320,232.949000L12.683300,231.619000L23.873300,235.339000L22.273300,246.529000Z" opacity="0.1" fill="rgb(0,0,0)" stroke="none" stroke-width="1"/><path id="ekjb92w9ec8i124" d="M22.273300,245.999000L2.563320,241.199000L4.173320,232.409000L12.683300,231.079000L23.873300,234.809000L22.273300,245.999000Z" fill="rgb(72,76,81)" stroke="none" stroke-width="1"/><path id="ekjb92w9ec8i125" d="M41.183300,184.479000L58.183300,191.399000C57.579900,194.092000,57.125800,196.816000,56.823300,199.559000C53.737600,200.214000,50.528900,199.971000,47.576600,198.860000C44.624300,197.749000,42.051900,195.816000,40.163300,193.289000C40.671500,190.375000,41.012000,187.433000,41.183300,184.479000L41.183300,184.479000Z" opacity="0.1" fill="rgb(0,0,0)" stroke="none" stroke-width="1"/><path id="ekjb92w9ec8i126" d="M53.433300,199.389000C62.551500,199.389000,69.943300,191.998000,69.943300,182.879000C69.943300,173.761000,62.551500,166.369000,53.433300,166.369000C44.315100,166.369000,36.923300,173.761000,36.923300,182.879000C36.923300,191.998000,44.315100,199.389000,53.433300,199.389000Z" fill="rgb(240,185,187)" stroke="none" stroke-width="1"/><path id="ekjb92w9ec8i127" d="M71.243300,174.019000C71.278100,173.412000,71.409700,172.815000,71.633300,172.249000C71.863300,171.759000,72.233300,171.329000,72.433300,170.829000C72.943300,169.589000,72.433300,168.199000,71.863300,166.969000C70.373600,163.209000,68.457700,159.633000,66.153300,156.309000C65.831000,155.810000,65.387100,155.400000,64.863300,155.119000C64.263700,154.925000,63.631100,154.854000,63.003300,154.909000C60.073300,154.909000,57.363300,153.489000,54.593300,152.559000C51.823300,151.629000,48.593300,151.189000,46.143300,152.859000C43.693300,154.529000,42.853300,157.859000,40.263300,159.189000C39.563300,159.549000,38.783300,159.729000,38.093300,160.119000C37.170800,160.722000,36.375800,161.500000,35.753300,162.409000C34.307800,163.836000,33.207600,165.574000,32.536800,167.491000C31.866100,169.408000,31.642500,171.453000,31.883300,173.469000C31.883300,176.469000,32.193300,179.809000,34.573300,181.559000C35.115900,181.957000,35.583300,182.448000,35.953300,183.009000C36.388800,183.729000,36.610700,184.558000,36.593300,185.399000C36.713300,187.049000,37.353300,188.689000,37.473300,190.339000C37.459300,190.968000,37.622200,191.588000,37.943300,192.129000C38.028000,192.259000,38.137800,192.370000,38.266200,192.457000C38.394500,192.543000,38.538900,192.603000,38.690800,192.633000C38.842700,192.663000,38.999100,192.662000,39.150600,192.630000C39.302200,192.599000,39.445900,192.537000,39.573300,192.449000L41.243300,185.579000C41.470000,184.207000,41.999500,182.902000,42.793300,181.759000C44.033300,180.239000,46.243300,179.479000,46.903300,177.619000C47.373300,176.289000,46.963300,174.569000,48.003300,173.619000C48.450500,173.275000,48.976300,173.049000,49.533300,172.959000C54.322200,171.818000,59.293300,171.665000,64.143300,172.509000C64.665100,172.571000,65.170600,172.730000,65.633300,172.979000C66.424000,173.605000,66.980700,174.478000,67.213300,175.459000C67.563300,176.459000,68.853300,182.049000,70.213300,181.669000C70.873300,181.449000,71.243300,174.889000,71.243300,174.019000Z" opacity="0.1" fill="rgb(0,0,0)" stroke="none" stroke-width="1"/><path id="ekjb92w9ec8i128" d="M71.243300,173.479000C71.278100,172.872000,71.409800,172.275000,71.633300,171.709000C71.863300,171.219000,72.233300,170.789000,72.433300,170.289000C72.943300,169.049000,72.433300,167.659000,71.863300,166.429000C70.373600,162.670000,68.457700,159.093000,66.153300,155.769000C65.831000,155.270000,65.387200,154.860000,64.863300,154.579000C64.263700,154.385000,63.631100,154.314000,63.003300,154.369000C60.073300,154.369000,57.363300,152.949000,54.593300,152.019000C51.823300,151.089000,48.593300,150.649000,46.143300,152.319000C43.693300,153.989000,42.853300,157.319000,40.263300,158.649000C39.563300,159.009000,38.783300,159.189000,38.093300,159.579000C37.170800,160.182000,36.375800,160.960000,35.753300,161.869000C34.313500,163.292000,33.216600,165.023000,32.546000,166.933000C31.875500,168.842000,31.648800,170.879000,31.883300,172.889000C31.883300,175.889000,32.193300,179.229000,34.573300,180.979000C35.116000,181.377000,35.583300,181.868000,35.953300,182.429000C36.408800,183.167000,36.638300,184.022000,36.613300,184.889000C36.733300,186.539000,37.373300,188.179000,37.493300,189.829000C37.479300,190.458000,37.642200,191.078000,37.963300,191.619000C38.052000,191.748000,38.165600,191.857000,38.297500,191.941000C38.429400,192.024000,38.576800,192.080000,38.730900,192.105000C38.884900,192.131000,39.042500,192.125000,39.194100,192.087000C39.345800,192.050000,39.488300,191.983000,39.613300,191.889000L41.283300,185.019000C41.510000,183.647000,42.039500,182.342000,42.833300,181.199000C44.073300,179.679000,46.283300,178.919000,46.943300,177.059000C47.413300,175.729000,47.003300,174.009000,48.043300,173.059000C48.490500,172.715000,49.016400,172.489000,49.573300,172.399000C54.362200,171.258000,59.333300,171.105000,64.183300,171.949000C64.705100,172.011000,65.210600,172.170000,65.673300,172.419000C66.464000,173.045000,67.020700,173.918000,67.253300,174.899000C67.603300,175.899000,68.893300,181.489000,70.253300,181.109000C70.873300,180.889000,71.243300,174.379000,71.243300,173.479000Z" fill="rgb(87,81,104)" stroke="none" stroke-width="1"/><path id="ekjb92w9ec8i129" d="M42.513300,185.809000C43.397000,185.809000,44.113300,184.139000,44.113300,182.079000C44.113300,180.019000,43.397000,178.349000,42.513300,178.349000C41.629600,178.349000,40.913300,180.019000,40.913300,182.079000C40.913300,184.139000,41.629600,185.809000,42.513300,185.809000Z" fill="rgb(240,185,187)" stroke="none" stroke-width="1"/><path id="ekjb92w9ec8i130" d="M67.823300,453.999000C76.753300,453.999000,88.063300,458.259000,91.823300,455.599000C92.182900,455.367000,92.481300,455.051000,92.693300,454.679000C93.003300,455.309000,92.793300,455.969000,91.823300,456.679000C88.093300,459.339000,76.823300,455.079000,67.823300,455.079000C66.223300,455.079000,57.173300,454.009000,57.173300,454.009000C57.173300,454.009000,57.173300,453.609000,57.173300,452.949000C57.383300,452.959000,66.243300,453.999000,67.823300,453.999000Z" opacity="0.1" fill="rgb(0,0,0)" stroke="none" stroke-width="1"/><path id="ekjb92w9ec8i131" d="M12.953300,458.259000C19.873300,458.259000,23.603300,456.659000,25.733300,453.469000L29.993300,452.399000C30.648400,449.274000,31.043100,446.100000,31.173300,442.909000C31.125100,446.459000,30.729800,449.996000,29.993300,453.469000L25.733300,454.539000C23.603300,457.739000,19.873300,459.329000,12.953300,459.329000C9.093300,459.329000,7.713300,457.169000,7.953300,454.989000C8.243300,456.749000,9.733300,458.259000,12.953300,458.259000Z" opacity="0.1" fill="rgb(0,0,0)" stroke="none" stroke-width="1"/><path id="ekjb92w9ec8i132" d="M24.561400,313.892000L42.687700,307.622000L40.249100,300.572000L22.122800,306.841000L24.561400,313.892000Z" fill="rgb(82,77,100)" stroke="none" stroke-width="1"/><path id="ekjb92w9ec8i133" d="M24.561400,313.892000L42.687700,307.622000L20.309000,242.923000L2.182660,249.193000L24.561400,313.892000Z" opacity="0.1" fill="rgb(0,0,0)" stroke="none" stroke-width="1"/></g></g><clipPath id="ekjb92w9ec8i134"><rect id="ekjb92w9ec8i135" width="1007.230000" height="501.780000" rx="0" ry="0" fill="rgb(255,255,255)" stroke="none" stroke-width="1"/></clipPath></g><script><![CDATA[!function(t,n){"object"==typeof exports&&"undefined"!=typeof module?module.exports=n():"function"==typeof define&&define.amd?define(n):(t=t||self).__SVGATOR_PLAYER__=n()}(this,(function(){"use strict";function t(n){return(t="function"==typeof Symbol&&"symbol"==typeof Symbol.iterator?function(t){return typeof t}:function(t){return t&&"function"==typeof Symbol&&t.constructor===Symbol&&t!==Symbol.prototype?"symbol":typeof t})(n)}function n(t,n){if(!(t instanceof n))throw new TypeError("Cannot call a class as a function")}function r(t,n){for(var r=0;r<n.length;r++){var e=n[r];e.enumerable=e.enumerable||!1,e.configurable=!0,"value"in e&&(e.writable=!0),Object.defineProperty(t,e.key,e)}}function e(t,n,e){return n&&r(t.prototype,n),e&&r(t,e),t}function i(t){return(i=Object.setPrototypeOf?Object.getPrototypeOf:function(t){return t.__proto__||Object.getPrototypeOf(t)})(t)}function o(t,n){return(o=Object.setPrototypeOf||function(t,n){return t.__proto__=n,t})(t,n)}function u(t,n){return!n||"object"!=typeof n&&"function"!=typeof n?function(t){if(void 0===t)throw new ReferenceError("this hasn't been initialised - super() hasn't been called");return t}(t):n}function a(t){var n=function(){if("undefined"==typeof Reflect||!Reflect.construct)return!1;if(Reflect.construct.sham)return!1;if("function"==typeof Proxy)return!0;try{return Date.prototype.toString.call(Reflect.construct(Date,[],(function(){}))),!0}catch(t){return!1}}();return function(){var r,e=i(t);if(n){var o=i(this).constructor;r=Reflect.construct(e,arguments,o)}else r=e.apply(this,arguments);return u(this,r)}}function l(t,n,r){return(l="undefined"!=typeof Reflect&&Reflect.get?Reflect.get:function(t,n,r){var e=function(t,n){for(;!Object.prototype.hasOwnProperty.call(t,n)&&null!==(t=i(t)););return t}(t,n);if(e){var o=Object.getOwnPropertyDescriptor(e,n);return o.get?o.get.call(r):o.value}})(t,n,r||t)}var f=Math.abs;function s(t){return t}function c(t,n,r){var e=1-r;return 3*r*e*(t*e+n*r)+r*r*r}function h(){var t=arguments.length>0&&void 0!==arguments[0]?arguments[0]:0,n=arguments.length>1&&void 0!==arguments[1]?arguments[1]:0,r=arguments.length>2&&void 0!==arguments[2]?arguments[2]:1,e=arguments.length>3&&void 0!==arguments[3]?arguments[3]:1;return t<0||t>1||r<0||r>1?null:f(t-n)<=1e-5&&f(r-e)<=1e-5?s:function(i){if(i<=0)return t>0?i*n/t:0===n&&r>0?i*e/r:0;if(i>=1)return r<1?1+(i-1)*(e-1)/(r-1):1===r&&t<1?1+(i-1)*(n-1)/(t-1):1;for(var o,u=0,a=1;u<a;){var l=c(t,r,o=(u+a)/2);if(f(i-l)<1e-5)break;l<i?u=o:a=o}return c(n,e,o)}}function v(){return 1}function y(t){return 1===t?1:0}function d(){var t=arguments.length>0&&void 0!==arguments[0]?arguments[0]:1,n=arguments.length>1&&void 0!==arguments[1]?arguments[1]:0;if(1===t){if(0===n)return y;if(1===n)return v}var r=1/t;return function(t){return t>=1?1:(t+=n*r)-t%r}}function g(t){var n=arguments.length>1&&void 0!==arguments[1]?arguments[1]:2;if(Number.isInteger(t))return t;var r=Math.pow(10,n);return Math.round(t*r)/r}var p=Math.PI/180;function m(t,n,r){return t>=.5?r:n}function b(t,n,r){return 0===t||n===r?n:t*(r-n)+n}function w(t,n,r){var e=b(t,n,r);return e<=0?0:e}function k(t,n,r){return 0===t?n:1===t?r:{x:b(t,n.x,r.x),y:b(t,n.y,r.y)}}function x(t,n,r){var e=function(t,n,r){return Math.round(b(t,n,r))}(t,n,r);return e<=0?0:e>=255?255:e}function A(t,n,r){return 0===t?n:1===t?r:{r:x(t,n.r,r.r),g:x(t,n.g,r.g),b:x(t,n.b,r.b),a:b(t,null==n.a?1:n.a,null==r.a?1:r.a)}}function _(t,n,r){if(0===t)return n;if(1===t)return r;var e=n.length;if(e!==r.length)return m(t,n,r);for(var i=[],o=0;o<e;o++)i.push(A(t,n[o],r[o]));return i}function S(t,n){for(var r=[],e=0;e<t;e++)r.push(n);return r}function O(t,n){if(--n<=0)return t;var r=(t=Object.assign([],t)).length;do{for(var e=0;e<r;e++)t.push(t[e])}while(--n>0);return t}var M,j=function(){function t(r){n(this,t),this.list=r,this.length=r.length}return e(t,[{key:"setAttribute",value:function(t,n){for(var r=this.list,e=0;e<this.length;e++)r[e].setAttribute(t,n)}},{key:"removeAttribute",value:function(t){for(var n=this.list,r=0;r<this.length;r++)n[r].removeAttribute(t)}},{key:"style",value:function(t,n){for(var r=this.list,e=0;e<this.length;e++)r[e].style[t]=n}}]),t}(),F=/-./g,P=function(t,n){return n.toUpperCase()};function q(t){return"function"==typeof t?t:m}function B(t){return t?"function"==typeof t?t:Array.isArray(t)?function(t){var n=arguments.length>1&&void 0!==arguments[1]?arguments[1]:s;if(!Array.isArray(t))return n;switch(t.length){case 1:return d(t[0])||n;case 2:return d(t[0],t[1])||n;case 4:return h(t[0],t[1],t[2],t[3])||n}return n}(t,null):function(t,n){var r=arguments.length>2&&void 0!==arguments[2]?arguments[2]:s;switch(t){case"linear":return s;case"steps":return d(n.steps||1,n.jump||0)||r;case"bezier":case"cubic-bezier":return h(n.x1||0,n.y1||0,n.x2||0,n.y2||0)||r}return r}(t.type,t.value,null):null}function I(t,n,r){var e=arguments.length>3&&void 0!==arguments[3]&&arguments[3],i=n.length-1;if(t<=n[0].t)return e?[0,0,n[0].v]:n[0].v;if(t>=n[i].t)return e?[i,1,n[i].v]:n[i].v;var o,u=n[0],a=null;for(o=1;o<=i;o++){if(!(t>n[o].t)){a=n[o];break}u=n[o]}return null==a?e?[i,1,n[i].v]:n[i].v:u.t===a.t?e?[o,1,a.v]:a.v:(t=(t-u.t)/(a.t-u.t),u.e&&(t=u.e(t)),e?[o,t,r(t,u.v,a.v)]:r(t,u.v,a.v))}function R(t,n){var r=arguments.length>2&&void 0!==arguments[2]?arguments[2]:null;return t&&t.length?"function"!=typeof n?null:("function"!=typeof r&&(r=null),function(e){var i=I(e,t,n);return null!=i&&r&&(i=r(i)),i}):null}function E(t,n){return t.t-n.t}function T(n,r,e,i,o){var u,a="@"===e[0],l="#"===e[0],f=M[e],s=m;switch(a?(u=e.substr(1),e=u.replace(F,P)):l&&(e=e.substr(1)),t(f)){case"function":if(s=f(i,o,I,B,e,a,r,n),l)return s;break;case"string":s=R(i,q(f));break;case"object":if((s=R(i,q(f.i),f.f))&&"function"==typeof f.u)return f.u(r,s,e,a,n)}return s?function(t,n,r){var e=arguments.length>3&&void 0!==arguments[3]&&arguments[3];if(e)return t instanceof j?function(e){return t.style(n,r(e))}:function(e){return t.style[n]=r(e)};if(Array.isArray(n)){var i=n.length;return function(e){var o=r(e);if(null==o)for(var u=0;u<i;u++)t[u].removeAttribute(n);else for(var a=0;a<i;a++)t[a].setAttribute(n,o)}}return function(e){var i=r(e);null==i?t.removeAttribute(n):t.setAttribute(n,i)}}(r,e,s,a):null}function z(n,r,e,i){if(!i||"object"!==t(i))return null;var o=null,u=null;return Array.isArray(i)?u=function(t){if(!t||!t.length)return null;for(var n=0;n<t.length;n++)t[n].e&&(t[n].e=B(t[n].e));return t.sort(E)}(i):(u=i.keys,o=i.data||null),u?T(n,r,e,u,o):null}function C(t,n,r){if(!r)return null;var e=[];for(var i in r)if(r.hasOwnProperty(i)){var o=z(t,n,i,r[i]);o&&e.push(o)}return e.length?e:null}function D(t,n){if(!n.duration||n.duration<0)return null;var r=function(t,n){if(!n)return null;var r=[];if(Array.isArray(n))for(var e=n.length,i=0;i<e;i++){var o=n[i];if(2===o.length){var u=null;if("string"==typeof o[0])u=t.getElementById(o[0]);else if(Array.isArray(o[0])){u=[];for(var a=0;a<o[0].length;a++)if("string"==typeof o[0][a]){var l=t.getElementById(o[0][a]);l&&u.push(l)}u=u.length?1===u.length?u[0]:new j(u):null}if(u){var f=C(t,u,o[1]);f&&(r=r.concat(f))}}}else for(var s in n)if(n.hasOwnProperty(s)){var c=t.getElementById(s);if(c){var h=C(t,c,n[s]);h&&(r=r.concat(h))}}return r.length?r:null}(t,n.elements);return r?function(t,n){var r=arguments.length>2&&void 0!==arguments[2]?arguments[2]:1/0,e=arguments.length>3&&void 0!==arguments[3]?arguments[3]:1,i=arguments.length>4&&void 0!==arguments[4]&&arguments[4],o=arguments.length>5&&void 0!==arguments[5]?arguments[5]:1,u=t.length,a=e>0?n:0;i&&r%2==0&&(a=n-a);var l=null;return function(f,s){var c=f%n,h=1+(f-c)/n;s*=e,i&&h%2==0&&(s=-s);var v=!1;if(h>r)c=a,v=!0,-1===o&&(c=e>0?0:n);else if(s<0&&(c=n-c),c===l)return!1;l=c;for(var y=0;y<u;y++)t[y](c);return v}}(r,n.duration,n.iterations||1/0,n.direction||1,!!n.alternate,n.fill||1):null}function N(t,n){if(M=n,!t||!t.root||!Array.isArray(t.animations))return null;for(var r=document.getElementsByTagName("svg"),e=!1,i=0;i<r.length;i++)if(r[i].id===t.root&&!r[i].svgatorAnimation){(e=r[i]).svgatorAnimation=!0;break}if(!e)return null;var o=t.animations.map((function(t){return D(e,t)})).filter((function(t){return!!t}));return o.length?{element:e,animations:o,animationSettings:t.animationSettings,options:t.options||void 0}:null}var L=function(){function t(r,e){var i=arguments.length>2&&void 0!==arguments[2]?arguments[2]:{};n(this,t),this._id=0,this._running=!1,this._rollingBack=!1,this._animations=r,this.duration=e.duration,this.alternate=e.alternate,this.fill=e.fill,this.iterations=e.iterations,this.direction=i.direction||1,this.speed=i.speed||1,this.fps=i.fps||100,this.offset=i.offset||0,this.rollbackStartOffset=0}return e(t,[{key:"_rollback",value:function(){var t=this,n=1/0,r=null;this.rollbackStartOffset=this.offset,this._rollingBack||(this._rollingBack=!0,this._running=!0);this._id=window.requestAnimationFrame((function e(i){if(t._rollingBack){null==r&&(r=i);var o=i-r,u=t.rollbackStartOffset-o,a=Math.round(u*t.speed);if(a>t.duration&&n!=1/0){var l=!!t.alternate&&a/t.duration%2>1,f=a%t.duration;a=(f+=l?t.duration:0)||t.duration}var s=t.fps?1e3/t.fps:0,c=Math.max(0,a);if(c<n-s){t.offset=c,n=c;for(var h=t._animations,v=h.length,y=0;y<v;y++)h[y](c,t.direction)}var d=!1;if(t.iterations>0&&-1===t.fill){var g=t.iterations*t.duration,p=g==a;a=p?0:a,t.offset=p?0:t.offset,d=a>g}a>0&&t.offset>=a&&!d?t._id=window.requestAnimationFrame(e):t.stop()}}))}},{key:"_start",value:function(){var t=this,n=arguments.length>0&&void 0!==arguments[0]?arguments[0]:0,r=-1/0,e=null,i={},o=function o(u){t._running=!0,null==e&&(e=u);var a=Math.round((u-e+n)*t.speed),l=t.fps?1e3/t.fps:0;if(a>r+l&&!t._rollingBack){t.offset=a,r=a;for(var f=t._animations,s=f.length,c=0,h=0;h<s;h++)i[h]?c++:(i[h]=f[h](a,t.direction),i[h]&&c++);if(c===s)return void t._stop()}t._id=window.requestAnimationFrame(o)};this._id=window.requestAnimationFrame(o)}},{key:"_stop",value:function(){this._id&&window.cancelAnimationFrame(this._id),this._running=!1,this._rollingBack=!1}},{key:"play",value:function(){!this._rollingBack&&this._running||(this._rollingBack=!1,this.rollbackStartOffset>this.duration&&(this.offset=this.rollbackStartOffset-(this.rollbackStartOffset-this.offset)%this.duration,this.rollbackStartOffset=0),this._start(this.offset))}},{key:"stop",value:function(){this._stop(),this.offset=0,this.rollbackStartOffset=0;var t=this.direction,n=this._animations;window.requestAnimationFrame((function(){for(var r=0;r<n.length;r++)n[r](0,t)}))}},{key:"reachedToEnd",value:function(){return this.iterations>0&&this.offset>=this.iterations*this.duration}},{key:"restart",value:function(){this._stop(),this.offset=0,this._start()}},{key:"pause",value:function(){this._stop()}},{key:"reverse",value:function(){this.direction=-this.direction}}],[{key:"build",value:function(n,r){return(n=N(n,r))?{el:n.element,options:n.options||{},player:new t(n.animations,n.animationSettings,n.options)}:null}}]),t}();!function(){for(var t=0,n=["ms","moz","webkit","o"],r=0;r<n.length&&!window.requestAnimationFrame;++r)window.requestAnimationFrame=window[n[r]+"RequestAnimationFrame"],window.cancelAnimationFrame=window[n[r]+"CancelAnimationFrame"]||window[n[r]+"CancelRequestAnimationFrame"];window.requestAnimationFrame||(window.requestAnimationFrame=function(n){var r=Date.now(),e=Math.max(0,16-(r-t)),i=window.setTimeout((function(){n(r+e)}),e);return t=r+e,i},window.cancelAnimationFrame=window.clearTimeout)}();var V=/\.0+$/g;function $(t){return Number.isInteger(t)?t+"":t.toFixed(6).replace(V,"")}function G(t){var n=arguments.length>1&&void 0!==arguments[1]?arguments[1]:" ";return t&&t.length?t.map($).join(n):""}function H(t){return t?null==t.a||t.a>=1?"rgb("+t.r+","+t.g+","+t.b+")":"rgba("+t.r+","+t.g+","+t.b+","+t.a+")":"transparent"}var Q={f:null,i:function(t,n,r){return 0===t?n:1===t?r:{x:w(t,n.x,r.x),y:w(t,n.y,r.y)}},u:function(t,n){return function(r){var e=n(r);t.setAttribute("rx",$(e.x)),t.setAttribute("ry",$(e.y))}}},U={f:null,i:function(t,n,r){return 0===t?n:1===t?r:{width:w(t,n.width,r.width),height:w(t,n.height,r.height)}},u:function(t,n){return function(r){var e=n(r);t.setAttribute("width",$(e.width)),t.setAttribute("height",$(e.height))}}},Y=Math.sin,Z=Math.cos,J=Math.acos,K=Math.asin,W=Math.tan,X=Math.atan2,tt=Math.PI/180,nt=180/Math.PI,rt=Math.sqrt,et=function(){function t(){var r=arguments.length>0&&void 0!==arguments[0]?arguments[0]:1,e=arguments.length>1&&void 0!==arguments[1]?arguments[1]:0,i=arguments.length>2&&void 0!==arguments[2]?arguments[2]:0,o=arguments.length>3&&void 0!==arguments[3]?arguments[3]:1,u=arguments.length>4&&void 0!==arguments[4]?arguments[4]:0,a=arguments.length>5&&void 0!==arguments[5]?arguments[5]:0;n(this,t),this.m=[r,e,i,o,u,a],this.i=null,this.w=null,this.s=null}return e(t,[{key:"point",value:function(t,n){var r=this.m;return{x:r[0]*t+r[2]*n+r[4],y:r[1]*t+r[3]*n+r[5]}}},{key:"translateSelf",value:function(){var t=arguments.length>0&&void 0!==arguments[0]?arguments[0]:0,n=arguments.length>1&&void 0!==arguments[1]?arguments[1]:0;if(!t&&!n)return this;var r=this.m;return r[4]+=r[0]*t+r[2]*n,r[5]+=r[1]*t+r[3]*n,this.w=this.s=this.i=null,this}},{key:"rotateSelf",value:function(){var t=arguments.length>0&&void 0!==arguments[0]?arguments[0]:0;if(t%=360){var n=Y(t*=tt),r=Z(t),e=this.m,i=e[0],o=e[1];e[0]=i*r+e[2]*n,e[1]=o*r+e[3]*n,e[2]=e[2]*r-i*n,e[3]=e[3]*r-o*n,this.w=this.s=this.i=null}return this}},{key:"scaleSelf",value:function(){var t=arguments.length>0&&void 0!==arguments[0]?arguments[0]:1,n=arguments.length>1&&void 0!==arguments[1]?arguments[1]:1;if(1!==t||1!==n){var r=this.m;r[0]*=t,r[1]*=t,r[2]*=n,r[3]*=n,this.w=this.s=this.i=null}return this}},{key:"skewSelf",value:function(t,n){if(n%=360,(t%=360)||n){var r=this.m,e=r[0],i=r[1],o=r[2],u=r[3];t&&(t=W(t*tt),r[2]+=e*t,r[3]+=i*t),n&&(n=W(n*tt),r[0]+=o*n,r[1]+=u*n),this.w=this.s=this.i=null}return this}},{key:"resetSelf",value:function(){var t=arguments.length>0&&void 0!==arguments[0]?arguments[0]:1,n=arguments.length>1&&void 0!==arguments[1]?arguments[1]:0,r=arguments.length>2&&void 0!==arguments[2]?arguments[2]:0,e=arguments.length>3&&void 0!==arguments[3]?arguments[3]:1,i=arguments.length>4&&void 0!==arguments[4]?arguments[4]:0,o=arguments.length>5&&void 0!==arguments[5]?arguments[5]:0,u=this.m;return u[0]=t,u[1]=n,u[2]=r,u[3]=e,u[4]=i,u[5]=o,this.w=this.s=this.i=null,this}},{key:"recomposeSelf",value:function(){var t=arguments.length>0&&void 0!==arguments[0]?arguments[0]:null,n=arguments.length>1&&void 0!==arguments[1]?arguments[1]:null,r=arguments.length>2&&void 0!==arguments[2]?arguments[2]:null,e=arguments.length>3&&void 0!==arguments[3]?arguments[3]:null,i=arguments.length>4&&void 0!==arguments[4]?arguments[4]:null;return this.isIdentity||this.resetSelf(),t&&(t.x||t.y)&&this.translateSelf(t.x,t.y),n&&this.rotateSelf(n),r&&(r.x&&this.skewSelf(r.x,0),r.y&&this.skewSelf(0,r.y)),!e||1===e.x&&1===e.y||this.scaleSelf(e.x,e.y),i&&(i.x||i.y)&&this.translateSelf(i.x,i.y),this}},{key:"decompose",value:function(){var t=arguments.length>0&&void 0!==arguments[0]?arguments[0]:0,n=arguments.length>1&&void 0!==arguments[1]?arguments[1]:0,r=this.m,e=r[0]*r[0]+r[1]*r[1],i=[[r[0],r[1]],[r[2],r[3]]],o=rt(e);if(0===o)return{origin:{x:r[4],y:r[5]},translate:{x:t,y:n},scale:{x:0,y:0},skew:{x:0,y:0},rotate:0};i[0][0]/=o,i[0][1]/=o;var u=r[0]*r[3]-r[1]*r[2]<0;u&&(o=-o);var a=i[0][0]*i[1][0]+i[0][1]*i[1][1];i[1][0]-=i[0][0]*a,i[1][1]-=i[0][1]*a;var l=rt(i[1][0]*i[1][0]+i[1][1]*i[1][1]);if(0===l)return{origin:{x:r[4],y:r[5]},translate:{x:t,y:n},scale:{x:o,y:0},skew:{x:0,y:0},rotate:0};i[1][0]/=l,i[1][1]/=l,a/=l;var f=0;return i[1][1]<0?(f=J(i[1][1])*nt,i[0][1]<0&&(f=360-f)):f=K(i[0][1])*nt,u&&(f=-f),a=X(a,rt(i[0][0]*i[0][0]+i[0][1]*i[0][1]))*nt,{origin:{x:r[4],y:r[5]},translate:{x:t,y:n},scale:{x:o,y:l},skew:{x:a,y:0},rotate:f}}},{key:"toString",value:function(){return null===this.s&&(this.s="matrix("+this.m.map(ot).join(" ")+")"),this.s}},{key:"determinant",get:function(){var t=this.m;return t[0]*t[3]-t[1]*t[2]}},{key:"isIdentity",get:function(){if(null===this.i){var t=this.m;this.i=1===t[0]&&0===t[1]&&0===t[2]&&1===t[3]&&0===t[4]&&0===t[5]}return this.i}}]),t}(),it=/\.0+$/;function ot(t){return Number.isInteger(t)?t:t.toFixed(14).replace(it,"")}Object.freeze({M:2,L:2,Z:0,H:1,V:1,C:6,Q:4,T:2,S:4,A:7});function ut(t,n,r){return t+(n-t)*r}function at(t,n,r){var e=arguments.length>3&&void 0!==arguments[3]&&arguments[3],i={x:ut(t.x,n.x,r),y:ut(t.y,n.y,r)};return e&&(i.a=lt(t,n)),i}function lt(t,n){return Math.atan2(n.y-t.y,n.x-t.x)}function ft(t,n,r,e){var i=1-e;return i*i*t+2*i*e*n+e*e*r}function st(t,n,r,e){return 2*(1-e)*(n-t)+2*e*(r-n)}function ct(t,n,r,e){var i=arguments.length>4&&void 0!==arguments[4]&&arguments[4],o={x:ft(t.x,n.x,r.x,e),y:ft(t.y,n.y,r.y,e)};return i&&(o.a=ht(t,n,r,e)),o}function ht(t,n,r,e){return Math.atan2(st(t.y,n.y,r.y,e),st(t.x,n.x,r.x,e))}function vt(t,n,r,e,i){var o=i*i;return i*o*(e-t+3*(n-r))+3*o*(t+r-2*n)+3*i*(n-t)+t}function yt(t,n,r,e,i){var o=1-i;return 3*(o*o*(n-t)+2*o*i*(r-n)+i*i*(e-r))}function dt(t,n,r,e,i){var o=arguments.length>5&&void 0!==arguments[5]&&arguments[5],u={x:vt(t.x,n.x,r.x,e.x,i),y:vt(t.y,n.y,r.y,e.y,i)};return o&&(u.a=gt(t,n,r,e,i)),u}function gt(t,n,r,e,i){return Math.atan2(yt(t.y,n.y,r.y,e.y,i),yt(t.x,n.x,r.x,e.x,i))}function pt(t,n,r){var e=arguments.length>3&&void 0!==arguments[3]&&arguments[3];if(bt(n)){if(wt(r))return ct(n,r.start,r,t,e)}else if(bt(r)){if(n.end)return ct(n,n.end,r,t,e)}else{if(n.end)return r.start?dt(n,n.end,r.start,r,t,e):ct(n,n.end,r,t,e);if(r.start)return ct(n,r.start,r,t,e)}return at(n,r,t,e)}function mt(t,n,r){var e=pt(t,n,r,!0);return e.a=function(t){var n=arguments.length>1&&void 0!==arguments[1]&&arguments[1];return n?t+Math.PI:t}(e.a)/p,e}function bt(t){return!t.type||"corner"===t.type}function wt(t){return null!=t.start&&!bt(t)}var kt=new et;var xt={f:$,i:b},At={f:$,i:function(t,n,r){var e=b(t,n,r);return e<=0?0:e>=1?1:e}};function _t(t,n,r,e,i,o,u,a){return n=function(t,n,r){for(var e,i,o,u=t.length-1,a={},l=0;l<=u;l++)(e=t[l]).e&&(e.e=n(e.e)),e.v&&"g"===(i=e.v).t&&i.r&&(o=r.getElementById(i.r))&&(a[i.r]=o.querySelectorAll("stop"));return a}(t,e,a),function(e){var i,o=r(e,t,St);return o?"c"===o.t?H(o.v):"g"===o.t?(n[o.r]&&function(t,n){for(var r=0,e=t.length;r<e;r++)t[r].setAttribute("stop-color",H(n[r]))}(n[o.r],o.v),(i=o.r)?"url(#"+i+")":"none"):"none":"none"}}function St(t,n,r){if(0===t)return n;if(1===t)return r;if(n&&r){var e=n.t;if(e===r.t)switch(n.t){case"c":return{t:e,v:A(t,n.v,r.v)};case"g":if(n.r===r.r)return{t:e,v:_(t,n.v,r.v),r:n.r}}}return m(t,n,r)}var Ot={fill:_t,"fill-opacity":At,stroke:_t,"stroke-opacity":At,"stroke-width":xt,"stroke-dashoffset":{f:$,i:b},"stroke-dasharray":{f:function(t){var n=arguments.length>1&&void 0!==arguments[1]?arguments[1]:" ";return t&&t.length>0&&(t=t.map((function(t){return Math.floor(1e4*t)/1e4}))),G(t,n)},i:function(t,n,r){var e,i,o,u=n.length,a=r.length;if(u!==a)if(0===u)n=S(u=a,0);else if(0===a)a=u,r=S(u,0);else{var l=(o=(e=u)*(i=a)/function(t,n){for(var r;n;)r=n,n=t%n,t=r;return t||1}(e,i))<0?-o:o;n=O(n,Math.floor(l/u)),r=O(r,Math.floor(l/a)),u=a=l}for(var f=[],s=0;s<u;s++)f.push(g(w(t,n[s],r[s]),6));return f}},opacity:At,transform:function(n,r,e,i){if(!(n=function(n,r){if(!n||"object"!==t(n))return null;var e=!1;for(var i in n)n.hasOwnProperty(i)&&(n[i]&&n[i].length?(n[i].forEach((function(t){t.e&&(t.e=r(t.e))})),e=!0):delete n[i]);return e?n:null}(n,i)))return null;var o=function(t,i,o){var u=arguments.length>3&&void 0!==arguments[3]?arguments[3]:null;return n[t]?e(i,n[t],o):r&&r[t]?r[t]:u};return r&&r.a&&n.o?function(t){var r=e(t,n.o,mt);return kt.recomposeSelf(r,o("r",t,b,0)+r.a,o("k",t,k),o("s",t,k),o("t",t,k)).toString()}:function(t){return kt.recomposeSelf(o("o",t,pt,null),o("r",t,b,0),o("k",t,k),o("s",t,k),o("t",t,k)).toString()}},r:xt,"#size":U,"#radius":Q,_:function(t,n){if(Array.isArray(t))for(var r=0;r<t.length;r++)this[t[r]]=n;else this[t]=n}};return function(t){!function(t,n){if("function"!=typeof n&&null!==n)throw new TypeError("Super expression must either be null or a function");t.prototype=Object.create(n&&n.prototype,{constructor:{value:t,writable:!0,configurable:!0}}),n&&o(t,n)}(u,t);var r=a(u);function u(){return n(this,u),r.apply(this,arguments)}return e(u,null,[{key:"build",value:function(t){var n=l(i(u),"build",this).call(this,t,Ot),r=(n.el,n.options,n.player);return function(t){t.play()}(r),r}}]),u}(L)}));
__SVGATOR_PLAYER__.build({"root":"ekjb92w9ec8i1","animations":[{"duration":4000,"direction":1,"iterations":0,"fill":1,"alternate":false,"elements":{"ekjb92w9ec8i57":{"transform":{"data":{"t":{"x":-178,"y":-191.80437469482422}},"keys":{"o":[{"t":0,"v":{"x":228,"y":190,"type":"corner"}},{"t":1000,"v":{"x":196.1837158203125,"y":191.80437469482422,"type":"corner"}},{"t":2000,"v":{"x":261,"y":191.80437469482422,"type":"corner"}},{"t":3000,"v":{"x":326,"y":191.80437469482422,"type":"corner"}},{"t":4000,"v":{"x":340,"y":191.80437469482422,"type":"corner"}}]}}},"ekjb92w9ec8i105":{"transform":{"data":{"t":{"x":-77.48770928382874,"y":-305.309326171875}},"keys":{"o":[{"t":0,"v":{"x":89,"y":325.619999996875,"type":"corner"}},{"t":2000,"v":{"x":329,"y":325.619999996875,"type":"corner"}},{"t":4000,"v":{"x":90,"y":325.619999996875,"type":"corner"}}]}}}}}],"options":{"start":"load","hover":"freeze","click":"freeze","scroll":25,"exportedIds":"unique","title":"undraw_street_food_hm5i 1"},"animationSettings":{"duration":4000,"direction":1,"iterations":0,"fill":1,"alternate":false}})]]></script></svg>